<?xml version="1.0" encoding="UTF-8" standalone="no"?>
<svg
   xmlns:dc="http://purl.org/dc/elements/1.1/"
   xmlns:cc="http://creativecommons.org/ns#"
   xmlns:rdf="http://www.w3.org/1999/02/22-rdf-syntax-ns#"
   xmlns:svg="http://www.w3.org/2000/svg"
   xmlns="http://www.w3.org/2000/svg"
   viewBox="0 0 290.06894 211.14169"
   height="211.14169"
   width="290.06894"
   xml:space="preserve"
   version="1.1"
   id="svg2"><metadata
     id="metadata8"><rdf:RDF><cc:Work
         rdf:about=""><dc:format>image/svg+xml</dc:format><dc:type
           rdf:resource="http://purl.org/dc/dcmitype/StillImage" /><dc:title></dc:title></cc:Work></rdf:RDF></metadata><defs
     id="defs6"><clipPath
       id="clipPath160"
       clipPathUnits="userSpaceOnUse"><path
         id="path162"
         d="M 0,0 L 540,0 L 540,396 L 0,396 L 0,0 Z" /></clipPath><clipPath
       id="clipPath168"
       clipPathUnits="userSpaceOnUse"><path
         id="path170"
         d="M 0,396 L 540,396 L 540,0 L 0,0 L 0,396 Z" /></clipPath><clipPath
       id="clipPath542"
       clipPathUnits="userSpaceOnUse"><path
         id="path544"
         d="M 0,-8 L 4.45,-8 L 4.45,0 L 0,0 L 0,-8 Z" /></clipPath></defs><g
     transform="matrix(1.25,0,0,-1.25,426.72057,898.74748)"
     id="g10"><g
       transform="matrix(0.4427795,0,0,0.4427795,-344.30664,547.7593)"
       id="g156"><g
         id="g158"
         clip-path="url(#clipPath160)"><g
           id="g164"><g
             id="g166"
             clip-path="url(#clipPath168)"><g
               id="g172"
               transform="translate(418.3535,198.5737)"><path
                 d="M 0,0 C -0.195,-45.158 -20.082,-87.585 -53.68,-117.57 C -88.207,-148.382 -135.004,-162.55 -180.843,-158.681 C -225.974,-154.873 -268.247,-132.009 -296.568,-96.794 C -324.978,-61.468 -336.242,-14.294 -327.567,30.095 C -319.021,73.833 -290.998,111.793 -253.224,134.932 C -213.449,159.296 -164.167,165.418 -119.348,153.139 C -50.773,134.351 -0.309,71.499 0,0 C 0.02,-4.513 7.02,-4.515 7,0 C 6.809,44.211 -11.467,86.288 -42.982,117.186 C -75.061,148.634 -119.092,165.824 -163.818,166.362 C -208.758,166.903 -252.849,149.657 -285.632,118.992 C -317.726,88.971 -336.532,46.648 -337.477,2.762 C -338.427,-41.355 -320.249,-84.121 -289.375,-115.351 C -257.853,-147.236 -214.158,-165.062 -169.54,-166.316 C -124.521,-167.58 -80.104,-150.974 -46.785,-120.769 C -14.264,-91.289 5.205,-49.322 6.904,-5.513 C 6.977,-3.676 6.992,-1.837 7,0 C 7.02,4.515 0.02,4.513 0,0"
                 style="fill:#231f20;fill-opacity:1;fill-rule:nonzero;stroke:none"
                 id="path174" /></g><g
               id="g176"
               transform="translate(339.5,336.6768)"><path
                 d="M 0,0 C 0,-6.627 -5.373,-12 -12,-12 L -146.089,-12 C -152.716,-12 -158.089,-6.627 -158.089,0 L -158.089,35.559 C -158.089,42.186 -152.716,47.559 -146.089,47.559 L -12,47.559 C -5.373,47.559 0,42.186 0,35.559 L 0,0 Z"
                 style="fill:#ffffff;fill-opacity:1;fill-rule:nonzero;stroke:none"
                 id="path178" /></g><g
               id="g180"
               transform="translate(339.5,336.6768)"><path
                 d="M 0,0 C 0,-6.627 -5.373,-12 -12,-12 L -146.089,-12 C -152.716,-12 -158.089,-6.627 -158.089,0 L -158.089,35.559 C -158.089,42.186 -152.716,47.559 -146.089,47.559 L -12,47.559 C -5.373,47.559 0,42.186 0,35.559 L 0,0 Z"
                 style="fill:none;stroke:#231f20;stroke-width:5;stroke-linecap:butt;stroke-linejoin:miter;stroke-miterlimit:4;stroke-dasharray:none;stroke-opacity:1"
                 id="path182" /></g><g
               id="g184"
               transform="translate(224.1484,356.688)"><path
                 d="M 0,0 C -0.785,0.973 -1.544,1.714 -2.276,2.224 C -3.009,2.733 -3.773,2.988 -4.57,2.988 C -5.309,2.988 -5.936,2.813 -6.451,2.461 C -6.967,2.109 -7.386,1.646 -7.708,1.072 C -8.03,0.498 -8.265,-0.152 -8.411,-0.879 C -8.558,-1.605 -8.631,-2.344 -8.631,-3.094 C -8.631,-3.891 -8.569,-4.67 -8.446,-5.432 C -8.323,-6.193 -8.109,-6.87 -7.805,-7.462 C -7.5,-8.054 -7.096,-8.528 -6.592,-8.886 C -6.088,-9.243 -5.455,-9.422 -4.693,-9.422 C -4.307,-9.422 -3.935,-9.369 -3.577,-9.264 C -3.22,-9.158 -2.854,-8.982 -2.479,-8.736 C -2.104,-8.49 -1.711,-8.171 -1.301,-7.778 C -0.891,-7.386 -0.457,-6.902 0,-6.328 L 0,0 Z M 2.918,-11.127 C 2.918,-11.221 2.897,-11.303 2.856,-11.373 C 2.815,-11.443 2.745,-11.499 2.646,-11.54 C 2.546,-11.581 2.414,-11.613 2.25,-11.637 C 2.086,-11.66 1.887,-11.672 1.652,-11.672 C 1.406,-11.672 1.201,-11.66 1.037,-11.637 C 0.873,-11.613 0.738,-11.581 0.633,-11.54 C 0.527,-11.499 0.451,-11.443 0.404,-11.373 C 0.357,-11.303 0.334,-11.221 0.334,-11.127 L 0.334,-9.035 C -0.498,-9.938 -1.362,-10.641 -2.259,-11.145 C -3.155,-11.648 -4.137,-11.9 -5.203,-11.9 C -6.363,-11.9 -7.354,-11.675 -8.174,-11.224 C -8.994,-10.772 -9.659,-10.163 -10.169,-9.396 C -10.679,-8.628 -11.051,-7.726 -11.285,-6.688 C -11.52,-5.651 -11.637,-4.559 -11.637,-3.41 C -11.637,-2.051 -11.49,-0.823 -11.197,0.272 C -10.904,1.368 -10.471,2.303 -9.896,3.076 C -9.322,3.85 -8.61,4.444 -7.761,4.86 C -6.911,5.276 -5.93,5.484 -4.816,5.484 C -3.891,5.484 -3.044,5.282 -2.276,4.878 C -1.509,4.474 -0.75,3.879 0,3.094 L 0,12.287 C 0,12.369 0.021,12.448 0.062,12.524 C 0.103,12.601 0.182,12.659 0.299,12.7 C 0.416,12.741 0.565,12.776 0.747,12.806 C 0.929,12.835 1.16,12.85 1.441,12.85 C 1.734,12.85 1.975,12.835 2.162,12.806 C 2.35,12.776 2.496,12.741 2.602,12.7 C 2.707,12.659 2.786,12.601 2.839,12.524 C 2.892,12.448 2.918,12.369 2.918,12.287 L 2.918,-11.127 Z"
                 style="fill:#231f20;fill-opacity:1;fill-rule:nonzero;stroke:none"
                 id="path186" /></g><g
               id="g188"
               transform="translate(243.0098,355.0181)"><path
                 d="M 0,0 C 0.035,1.523 -0.304,2.719 -1.017,3.586 C -1.73,4.453 -2.789,4.887 -4.191,4.887 C -4.911,4.887 -5.542,4.752 -6.084,4.482 C -6.626,4.213 -7.081,3.855 -7.446,3.41 C -7.812,2.965 -8.094,2.446 -8.295,1.854 C -8.496,1.263 -8.607,0.645 -8.631,0 L 0,0 Z M 2.918,-0.861 C 2.918,-1.318 2.803,-1.644 2.574,-1.837 C 2.344,-2.03 2.082,-2.127 1.788,-2.127 L -8.631,-2.127 C -8.631,-3.006 -8.542,-3.797 -8.366,-4.5 C -8.189,-5.203 -7.895,-5.807 -7.483,-6.311 C -7.071,-6.814 -6.535,-7.201 -5.875,-7.471 C -5.216,-7.74 -4.409,-7.875 -3.456,-7.875 C -2.702,-7.875 -2.031,-7.813 -1.442,-7.69 C -0.853,-7.567 -0.344,-7.43 0.086,-7.277 C 0.516,-7.125 0.869,-6.987 1.146,-6.864 C 1.423,-6.741 1.632,-6.68 1.773,-6.68 C 1.855,-6.68 1.929,-6.7 1.994,-6.741 C 2.059,-6.782 2.108,-6.844 2.144,-6.926 C 2.179,-7.008 2.206,-7.122 2.223,-7.269 C 2.241,-7.415 2.25,-7.594 2.25,-7.805 C 2.25,-7.957 2.244,-8.089 2.232,-8.2 C 2.221,-8.312 2.206,-8.411 2.188,-8.499 C 2.171,-8.587 2.142,-8.666 2.101,-8.736 C 2.06,-8.807 2.007,-8.874 1.942,-8.938 C 1.878,-9.003 1.688,-9.108 1.371,-9.255 C 1.055,-9.401 0.645,-9.545 0.141,-9.686 C -0.363,-9.826 -0.946,-9.952 -1.608,-10.063 C -2.271,-10.175 -2.977,-10.23 -3.727,-10.23 C -5.027,-10.23 -6.167,-10.049 -7.146,-9.686 C -8.124,-9.322 -8.947,-8.783 -9.615,-8.068 C -10.283,-7.354 -10.787,-6.457 -11.127,-5.379 C -11.467,-4.301 -11.637,-3.047 -11.637,-1.617 C -11.637,-0.258 -11.461,0.964 -11.109,2.048 C -10.758,3.132 -10.251,4.052 -9.589,4.808 C -8.927,5.563 -8.127,6.144 -7.189,6.548 C -6.252,6.952 -5.203,7.154 -4.043,7.154 C -2.801,7.154 -1.743,6.955 -0.87,6.557 C 0.003,6.158 0.721,5.622 1.283,4.948 C 1.846,4.274 2.259,3.483 2.522,2.575 C 2.786,1.667 2.918,0.697 2.918,-0.334 L 2.918,-0.861 Z"
                 style="fill:#231f20;fill-opacity:1;fill-rule:nonzero;stroke:none"
                 id="path190" /></g><g
               id="g192"
               transform="translate(260.2715,349.8677)"><path
                 d="M 0,0 C 0,-0.809 -0.149,-1.529 -0.448,-2.162 C -0.747,-2.795 -1.172,-3.328 -1.723,-3.762 C -2.273,-4.195 -2.93,-4.523 -3.691,-4.746 C -4.453,-4.969 -5.291,-5.08 -6.205,-5.08 C -6.768,-5.08 -7.304,-5.036 -7.813,-4.948 C -8.323,-4.86 -8.78,-4.749 -9.185,-4.614 C -9.589,-4.479 -9.932,-4.339 -10.213,-4.192 C -10.494,-4.046 -10.699,-3.914 -10.828,-3.797 C -10.957,-3.68 -11.051,-3.516 -11.109,-3.305 C -11.168,-3.094 -11.197,-2.807 -11.197,-2.443 C -11.197,-2.221 -11.186,-2.033 -11.162,-1.881 C -11.139,-1.729 -11.109,-1.605 -11.074,-1.512 C -11.039,-1.418 -10.989,-1.351 -10.925,-1.31 C -10.86,-1.269 -10.787,-1.248 -10.705,-1.248 C -10.576,-1.248 -10.386,-1.327 -10.134,-1.485 C -9.882,-1.644 -9.571,-1.816 -9.202,-2.004 C -8.833,-2.191 -8.396,-2.364 -7.893,-2.522 C -7.389,-2.681 -6.809,-2.76 -6.152,-2.76 C -5.66,-2.76 -5.215,-2.707 -4.816,-2.602 C -4.418,-2.496 -4.072,-2.341 -3.779,-2.136 C -3.486,-1.931 -3.261,-1.67 -3.103,-1.354 C -2.944,-1.037 -2.865,-0.662 -2.865,-0.229 C -2.865,0.217 -2.979,0.592 -3.208,0.896 C -3.437,1.201 -3.738,1.471 -4.113,1.705 C -4.488,1.939 -4.91,2.147 -5.379,2.329 C -5.848,2.511 -6.331,2.701 -6.829,2.9 C -7.327,3.1 -7.813,3.325 -8.288,3.577 C -8.763,3.829 -9.188,4.137 -9.563,4.5 C -9.938,4.863 -10.239,5.297 -10.468,5.801 C -10.696,6.305 -10.811,6.908 -10.811,7.611 C -10.811,8.232 -10.69,8.827 -10.45,9.396 C -10.21,9.964 -9.85,10.462 -9.369,10.89 C -8.889,11.317 -8.288,11.66 -7.567,11.918 C -6.847,12.176 -6.006,12.305 -5.045,12.305 C -4.623,12.305 -4.201,12.27 -3.779,12.199 C -3.357,12.129 -2.977,12.041 -2.637,11.936 C -2.297,11.83 -2.007,11.716 -1.767,11.593 C -1.526,11.47 -1.345,11.361 -1.222,11.268 C -1.099,11.174 -1.017,11.092 -0.976,11.021 C -0.935,10.951 -0.905,10.872 -0.888,10.784 C -0.87,10.696 -0.853,10.588 -0.835,10.459 C -0.817,10.33 -0.809,10.172 -0.809,9.984 C -0.809,9.785 -0.817,9.612 -0.835,9.466 C -0.853,9.319 -0.882,9.199 -0.923,9.105 C -0.964,9.012 -1.014,8.944 -1.072,8.903 C -1.131,8.862 -1.195,8.842 -1.266,8.842 C -1.371,8.842 -1.523,8.906 -1.723,9.035 C -1.922,9.164 -2.18,9.302 -2.496,9.448 C -2.813,9.595 -3.185,9.732 -3.612,9.861 C -4.04,9.99 -4.529,10.055 -5.08,10.055 C -5.572,10.055 -6.006,9.999 -6.381,9.888 C -6.756,9.776 -7.063,9.618 -7.304,9.413 C -7.544,9.208 -7.726,8.965 -7.849,8.684 C -7.972,8.402 -8.033,8.098 -8.033,7.77 C -8.033,7.313 -7.916,6.929 -7.682,6.618 C -7.447,6.308 -7.143,6.035 -6.768,5.801 C -6.393,5.566 -5.965,5.355 -5.484,5.168 C -5.004,4.98 -4.515,4.787 -4.017,4.588 C -3.519,4.389 -3.026,4.166 -2.54,3.92 C -2.054,3.674 -1.623,3.375 -1.248,3.023 C -0.873,2.672 -0.571,2.25 -0.343,1.758 C -0.114,1.266 0,0.68 0,0"
                 style="fill:#231f20;fill-opacity:1;fill-rule:nonzero;stroke:none"
                 id="path194" /></g><g
               id="g196"
               transform="translate(267.3208,345.561)"><path
                 d="M 0,0 C 0,-0.094 -0.024,-0.173 -0.07,-0.237 C -0.118,-0.302 -0.193,-0.357 -0.299,-0.404 C -0.404,-0.451 -0.552,-0.486 -0.738,-0.51 C -0.927,-0.533 -1.167,-0.545 -1.459,-0.545 C -1.74,-0.545 -1.976,-0.533 -2.162,-0.51 C -2.351,-0.486 -2.5,-0.451 -2.611,-0.404 C -2.723,-0.357 -2.799,-0.302 -2.84,-0.237 C -2.881,-0.173 -2.9,-0.094 -2.9,0 L -2.9,15.82 C -2.9,15.902 -2.881,15.979 -2.84,16.049 C -2.799,16.119 -2.723,16.178 -2.611,16.225 C -2.5,16.271 -2.351,16.307 -2.162,16.33 C -1.976,16.354 -1.74,16.365 -1.459,16.365 C -1.167,16.365 -0.927,16.354 -0.738,16.33 C -0.552,16.307 -0.404,16.271 -0.299,16.225 C -0.193,16.178 -0.118,16.119 -0.07,16.049 C -0.024,15.979 0,15.902 0,15.82 L 0,0 Z M 0.334,21.164 C 0.334,20.484 0.204,20.021 -0.053,19.775 C -0.312,19.529 -0.786,19.406 -1.477,19.406 C -2.157,19.406 -2.623,19.526 -2.875,19.767 C -3.127,20.007 -3.252,20.461 -3.252,21.129 C -3.252,21.809 -3.124,22.271 -2.865,22.518 C -2.608,22.764 -2.134,22.887 -1.441,22.887 C -0.763,22.887 -0.297,22.767 -0.045,22.526 C 0.207,22.286 0.334,21.832 0.334,21.164"
                 style="fill:#231f20;fill-opacity:1;fill-rule:nonzero;stroke:none"
                 id="path198" /></g><g
               id="g200"
               transform="translate(281.3652,356.4946)"><path
                 d="M 0,0 C 0,1.078 -0.295,1.919 -0.887,2.522 C -1.479,3.126 -2.32,3.428 -3.41,3.428 C -3.973,3.428 -4.461,3.334 -4.877,3.146 C -5.293,2.959 -5.639,2.701 -5.914,2.373 C -6.189,2.045 -6.395,1.667 -6.529,1.239 C -6.664,0.812 -6.732,0.363 -6.732,-0.105 C -6.732,-1.148 -6.436,-1.969 -5.844,-2.566 C -5.252,-3.164 -4.424,-3.463 -3.357,-3.463 C -2.783,-3.463 -2.285,-3.372 -1.863,-3.19 C -1.441,-3.009 -1.092,-2.757 -0.816,-2.435 C -0.541,-2.112 -0.336,-1.74 -0.201,-1.318 C -0.066,-0.896 0,-0.457 0,0 M 1.459,-12.533 C 1.459,-11.854 1.182,-11.329 0.625,-10.96 C 0.068,-10.591 -0.686,-10.395 -1.635,-10.371 L -5.73,-10.23 C -6.105,-10.523 -6.412,-10.802 -6.652,-11.065 C -6.893,-11.329 -7.084,-11.581 -7.225,-11.821 C -7.365,-12.062 -7.461,-12.299 -7.514,-12.533 C -7.566,-12.768 -7.594,-13.008 -7.594,-13.254 C -7.594,-14.016 -7.207,-14.593 -6.434,-14.985 C -5.66,-15.378 -4.582,-15.574 -3.199,-15.574 C -2.32,-15.574 -1.584,-15.489 -0.992,-15.319 C -0.4,-15.149 0.076,-14.924 0.439,-14.643 C 0.803,-14.361 1.064,-14.039 1.223,-13.676 C 1.381,-13.313 1.459,-12.932 1.459,-12.533 M 4.535,4.166 C 4.535,3.756 4.48,3.46 4.369,3.278 C 4.258,3.097 4.113,3.006 3.938,3.006 L 1.67,3.006 C 2.08,2.584 2.367,2.118 2.531,1.608 C 2.695,1.099 2.777,0.568 2.777,0.018 C 2.777,-0.896 2.631,-1.705 2.338,-2.408 C 2.045,-3.111 1.627,-3.706 1.082,-4.192 C 0.537,-4.679 -0.111,-5.051 -0.861,-5.309 C -1.611,-5.566 -2.443,-5.695 -3.357,-5.695 C -4.002,-5.695 -4.613,-5.61 -5.193,-5.44 C -5.773,-5.271 -6.223,-5.057 -6.539,-4.799 C -6.75,-5.01 -6.922,-5.25 -7.057,-5.52 C -7.191,-5.789 -7.26,-6.1 -7.26,-6.451 C -7.26,-6.861 -7.068,-7.201 -6.688,-7.471 C -6.307,-7.74 -5.801,-7.887 -5.168,-7.91 L -1.037,-8.086 C -0.252,-8.109 0.469,-8.218 1.125,-8.411 C 1.781,-8.604 2.35,-8.88 2.83,-9.237 C 3.311,-9.595 3.686,-10.034 3.955,-10.556 C 4.225,-11.077 4.359,-11.684 4.359,-12.375 C 4.359,-13.102 4.207,-13.793 3.902,-14.449 C 3.598,-15.105 3.133,-15.683 2.506,-16.181 C 1.879,-16.679 1.078,-17.071 0.105,-17.358 C -0.867,-17.646 -2.016,-17.789 -3.34,-17.789 C -4.617,-17.789 -5.703,-17.681 -6.6,-17.464 C -7.496,-17.247 -8.232,-16.951 -8.807,-16.576 C -9.381,-16.201 -9.797,-15.753 -10.055,-15.231 C -10.313,-14.71 -10.441,-14.145 -10.441,-13.535 C -10.441,-13.148 -10.394,-12.773 -10.301,-12.41 C -10.207,-12.047 -10.063,-11.701 -9.869,-11.373 C -9.676,-11.045 -9.436,-10.731 -9.148,-10.433 C -8.861,-10.134 -8.531,-9.838 -8.156,-9.545 C -8.73,-9.252 -9.154,-8.883 -9.43,-8.438 C -9.705,-7.992 -9.844,-7.512 -9.844,-6.996 C -9.844,-6.281 -9.697,-5.643 -9.404,-5.08 C -9.111,-4.518 -8.748,-4.014 -8.314,-3.568 C -8.678,-3.135 -8.965,-2.646 -9.176,-2.101 C -9.387,-1.556 -9.492,-0.896 -9.492,-0.123 C -9.492,0.779 -9.34,1.588 -9.035,2.303 C -8.73,3.018 -8.309,3.621 -7.77,4.113 C -7.23,4.605 -6.582,4.983 -5.826,5.247 C -5.07,5.511 -4.248,5.643 -3.357,5.643 C -2.877,5.643 -2.428,5.616 -2.012,5.563 C -1.596,5.511 -1.207,5.438 -0.844,5.344 L 3.938,5.344 C 4.137,5.344 4.287,5.247 4.387,5.054 C 4.486,4.86 4.535,4.564 4.535,4.166"
                 style="fill:#231f20;fill-opacity:1;fill-rule:nonzero;stroke:none"
                 id="path202" /></g><g
               id="g204"
               transform="translate(303.25,345.561)"><path
                 d="M 0,0 C 0,-0.094 -0.023,-0.173 -0.07,-0.237 C -0.117,-0.302 -0.193,-0.357 -0.299,-0.404 C -0.404,-0.451 -0.551,-0.486 -0.738,-0.51 C -0.926,-0.533 -1.16,-0.545 -1.441,-0.545 C -1.734,-0.545 -1.975,-0.533 -2.162,-0.51 C -2.35,-0.486 -2.496,-0.451 -2.602,-0.404 C -2.707,-0.357 -2.783,-0.302 -2.83,-0.237 C -2.877,-0.173 -2.9,-0.094 -2.9,0 L -2.9,9.264 C -2.9,10.166 -2.971,10.893 -3.111,11.443 C -3.252,11.994 -3.457,12.469 -3.727,12.867 C -3.996,13.266 -4.344,13.57 -4.771,13.781 C -5.199,13.992 -5.695,14.098 -6.258,14.098 C -6.984,14.098 -7.711,13.84 -8.438,13.324 C -9.164,12.809 -9.926,12.053 -10.723,11.057 L -10.723,0 C -10.723,-0.094 -10.746,-0.173 -10.793,-0.237 C -10.84,-0.302 -10.916,-0.357 -11.021,-0.404 C -11.127,-0.451 -11.273,-0.486 -11.461,-0.51 C -11.648,-0.533 -11.889,-0.545 -12.182,-0.545 C -12.463,-0.545 -12.697,-0.533 -12.885,-0.51 C -13.072,-0.486 -13.221,-0.451 -13.332,-0.404 C -13.443,-0.357 -13.52,-0.302 -13.561,-0.237 C -13.602,-0.173 -13.623,-0.094 -13.623,0 L -13.623,15.82 C -13.623,15.914 -13.605,15.993 -13.57,16.058 C -13.535,16.122 -13.465,16.181 -13.359,16.233 C -13.254,16.286 -13.119,16.321 -12.955,16.339 C -12.791,16.356 -12.574,16.365 -12.305,16.365 C -12.047,16.365 -11.832,16.356 -11.662,16.339 C -11.492,16.321 -11.361,16.286 -11.268,16.233 C -11.174,16.181 -11.105,16.122 -11.064,16.058 C -11.023,15.993 -11.004,15.914 -11.004,15.82 L -11.004,13.729 C -10.113,14.725 -9.225,15.454 -8.34,15.917 C -7.455,16.38 -6.563,16.611 -5.66,16.611 C -4.605,16.611 -3.717,16.433 -2.996,16.075 C -2.275,15.718 -1.693,15.24 -1.248,14.643 C -0.803,14.045 -0.482,13.345 -0.289,12.542 C -0.096,11.739 0,10.775 0,9.65 L 0,0 Z"
                 style="fill:#231f20;fill-opacity:1;fill-rule:nonzero;stroke:none"
                 id="path206" /></g><g
               id="g208"
               transform="translate(528.2051,124.1758)"><path
                 d="M 0,0 C 0,-6.627 -5.432,-12 -12.129,-12 L -236.869,-12 C -243.566,-12 -248.998,-6.627 -248.998,0 L -248.998,25.266 C -248.998,31.893 -243.566,37.266 -236.869,37.266 L -12.129,37.266 C -5.432,37.266 0,31.893 0,25.266 L 0,0 Z"
                 style="fill:#ffffff;fill-opacity:1;fill-rule:nonzero;stroke:none"
                 id="path210" /></g><g
               id="g212"
               transform="translate(528.2051,124.1758)"><path
                 d="M 0,0 C 0,-6.627 -5.432,-12 -12.129,-12 L -236.869,-12 C -243.566,-12 -248.998,-6.627 -248.998,0 L -248.998,25.266 C -248.998,31.893 -243.566,37.266 -236.869,37.266 L -12.129,37.266 C -5.432,37.266 0,31.893 0,25.266 L 0,0 Z"
                 style="fill:none;stroke:#231f20;stroke-width:5;stroke-linecap:butt;stroke-linejoin:miter;stroke-miterlimit:4;stroke-dasharray:none;stroke-opacity:1"
                 id="path214" /></g><g
               id="g216"
               transform="translate(292.1484,127.1797)"><path
                 d="M 0,0 C 0,-0.094 -0.023,-0.173 -0.07,-0.237 C -0.117,-0.302 -0.193,-0.357 -0.299,-0.404 C -0.404,-0.451 -0.551,-0.486 -0.738,-0.51 C -0.926,-0.533 -1.166,-0.545 -1.459,-0.545 C -1.74,-0.545 -1.975,-0.533 -2.162,-0.51 C -2.35,-0.486 -2.498,-0.451 -2.609,-0.404 C -2.721,-0.357 -2.797,-0.302 -2.838,-0.237 C -2.879,-0.173 -2.9,-0.094 -2.9,0 L -2.9,15.82 C -2.9,15.902 -2.879,15.979 -2.838,16.049 C -2.797,16.119 -2.721,16.178 -2.609,16.225 C -2.498,16.271 -2.35,16.307 -2.162,16.33 C -1.975,16.354 -1.74,16.365 -1.459,16.365 C -1.166,16.365 -0.926,16.354 -0.738,16.33 C -0.551,16.307 -0.404,16.271 -0.299,16.225 C -0.193,16.178 -0.117,16.119 -0.07,16.049 C -0.023,15.979 0,15.902 0,15.82 L 0,0 Z M 0.334,21.164 C 0.334,20.484 0.205,20.021 -0.053,19.775 C -0.311,19.529 -0.785,19.406 -1.477,19.406 C -2.156,19.406 -2.621,19.526 -2.873,19.767 C -3.125,20.007 -3.252,20.461 -3.252,21.129 C -3.252,21.809 -3.123,22.271 -2.865,22.518 C -2.607,22.764 -2.133,22.887 -1.441,22.887 C -0.762,22.887 -0.295,22.767 -0.043,22.526 C 0.209,22.286 0.334,21.832 0.334,21.164"
                 style="fill:#231f20;fill-opacity:1;fill-rule:nonzero;stroke:none"
                 id="path218" /></g><g
               id="g220"
               transform="translate(320.9766,127.1797)"><path
                 d="M 0,0 C 0,-0.094 -0.023,-0.173 -0.07,-0.237 C -0.117,-0.302 -0.193,-0.357 -0.299,-0.404 C -0.404,-0.451 -0.551,-0.486 -0.738,-0.51 C -0.926,-0.533 -1.16,-0.545 -1.441,-0.545 C -1.734,-0.545 -1.975,-0.533 -2.162,-0.51 C -2.35,-0.486 -2.498,-0.451 -2.609,-0.404 C -2.721,-0.357 -2.801,-0.302 -2.848,-0.237 C -2.895,-0.173 -2.918,-0.094 -2.918,0 L -2.918,9.615 C -2.918,10.283 -2.977,10.893 -3.094,11.443 C -3.211,11.994 -3.398,12.469 -3.656,12.867 C -3.914,13.266 -4.242,13.57 -4.641,13.781 C -5.039,13.992 -5.508,14.098 -6.047,14.098 C -6.715,14.098 -7.385,13.84 -8.059,13.324 C -8.732,12.809 -9.475,12.053 -10.283,11.057 L -10.283,0 C -10.283,-0.094 -10.307,-0.173 -10.354,-0.237 C -10.4,-0.302 -10.479,-0.357 -10.59,-0.404 C -10.701,-0.451 -10.852,-0.486 -11.039,-0.51 C -11.227,-0.533 -11.461,-0.545 -11.742,-0.545 C -12.012,-0.545 -12.242,-0.533 -12.436,-0.51 C -12.629,-0.486 -12.781,-0.451 -12.893,-0.404 C -13.004,-0.357 -13.08,-0.302 -13.121,-0.237 C -13.162,-0.173 -13.184,-0.094 -13.184,0 L -13.184,9.615 C -13.184,10.283 -13.248,10.893 -13.377,11.443 C -13.506,11.994 -13.699,12.469 -13.957,12.867 C -14.215,13.266 -14.539,13.57 -14.932,13.781 C -15.324,13.992 -15.791,14.098 -16.33,14.098 C -16.998,14.098 -17.672,13.84 -18.352,13.324 C -19.031,12.809 -19.77,12.053 -20.566,11.057 L -20.566,0 C -20.566,-0.094 -20.59,-0.173 -20.637,-0.237 C -20.684,-0.302 -20.76,-0.357 -20.865,-0.404 C -20.971,-0.451 -21.117,-0.486 -21.305,-0.51 C -21.492,-0.533 -21.732,-0.545 -22.025,-0.545 C -22.307,-0.545 -22.541,-0.533 -22.729,-0.51 C -22.916,-0.486 -23.064,-0.451 -23.176,-0.404 C -23.287,-0.357 -23.363,-0.302 -23.404,-0.237 C -23.445,-0.173 -23.467,-0.094 -23.467,0 L -23.467,15.82 C -23.467,15.914 -23.449,15.993 -23.414,16.058 C -23.379,16.122 -23.309,16.181 -23.203,16.233 C -23.098,16.286 -22.963,16.321 -22.799,16.339 C -22.635,16.356 -22.418,16.365 -22.148,16.365 C -21.891,16.365 -21.676,16.356 -21.506,16.339 C -21.336,16.321 -21.205,16.286 -21.111,16.233 C -21.018,16.181 -20.949,16.122 -20.908,16.058 C -20.867,15.993 -20.848,15.914 -20.848,15.82 L -20.848,13.729 C -19.957,14.725 -19.092,15.454 -18.254,15.917 C -17.416,16.38 -16.57,16.611 -15.715,16.611 C -15.059,16.611 -14.469,16.535 -13.947,16.383 C -13.426,16.23 -12.967,16.017 -12.568,15.741 C -12.17,15.466 -11.83,15.138 -11.549,14.757 C -11.268,14.376 -11.033,13.951 -10.846,13.482 C -10.318,14.057 -9.816,14.543 -9.342,14.941 C -8.867,15.34 -8.41,15.662 -7.971,15.908 C -7.531,16.154 -7.104,16.333 -6.688,16.444 C -6.271,16.556 -5.854,16.611 -5.432,16.611 C -4.412,16.611 -3.557,16.433 -2.865,16.075 C -2.174,15.718 -1.613,15.24 -1.186,14.643 C -0.758,14.045 -0.453,13.345 -0.271,12.542 C -0.09,11.739 0,10.893 0,10.002 L 0,0 Z"
                 style="fill:#231f20;fill-opacity:1;fill-rule:nonzero;stroke:none"
                 id="path222" /></g><g
               id="g224"
               transform="translate(337.8164,135.002)"><path
                 d="M 0,0 C 0,0.809 -0.063,1.591 -0.186,2.347 C -0.309,3.103 -0.521,3.773 -0.822,4.359 C -1.123,4.945 -1.525,5.414 -2.033,5.766 C -2.541,6.117 -3.172,6.293 -3.926,6.293 C -4.303,6.293 -4.674,6.237 -5.039,6.126 C -5.406,6.015 -5.777,5.839 -6.154,5.599 C -6.531,5.358 -6.926,5.042 -7.34,4.649 C -7.752,4.257 -8.188,3.773 -8.648,3.199 L -8.648,-3.094 C -7.846,-4.066 -7.086,-4.811 -6.367,-5.326 C -5.646,-5.842 -4.893,-6.1 -4.104,-6.1 C -3.371,-6.1 -2.744,-5.924 -2.219,-5.572 C -1.695,-5.221 -1.27,-4.752 -0.945,-4.166 C -0.621,-3.58 -0.383,-2.924 -0.229,-2.197 C -0.076,-1.471 0,-0.738 0,0 M 3.006,0.334 C 3.006,-1.049 2.857,-2.291 2.559,-3.393 C 2.26,-4.494 1.82,-5.429 1.24,-6.196 C 0.66,-6.964 -0.059,-7.556 -0.914,-7.972 C -1.77,-8.388 -2.748,-8.596 -3.85,-8.596 C -4.318,-8.596 -4.752,-8.549 -5.15,-8.455 C -5.549,-8.361 -5.938,-8.215 -6.318,-8.016 C -6.699,-7.816 -7.078,-7.564 -7.453,-7.26 C -7.828,-6.955 -8.227,-6.598 -8.648,-6.188 L -8.648,-14.098 C -8.648,-14.191 -8.672,-14.273 -8.719,-14.344 C -8.766,-14.414 -8.842,-14.473 -8.947,-14.52 C -9.053,-14.566 -9.199,-14.602 -9.387,-14.625 C -9.574,-14.648 -9.814,-14.66 -10.107,-14.66 C -10.389,-14.66 -10.623,-14.648 -10.811,-14.625 C -10.998,-14.602 -11.146,-14.566 -11.258,-14.52 C -11.369,-14.473 -11.445,-14.414 -11.486,-14.344 C -11.527,-14.273 -11.549,-14.191 -11.549,-14.098 L -11.549,7.998 C -11.549,8.104 -11.531,8.188 -11.496,8.253 C -11.461,8.317 -11.391,8.373 -11.285,8.42 C -11.18,8.467 -11.045,8.499 -10.881,8.517 C -10.717,8.534 -10.518,8.543 -10.283,8.543 C -10.037,8.543 -9.834,8.534 -9.676,8.517 C -9.518,8.499 -9.387,8.467 -9.281,8.42 C -9.176,8.373 -9.102,8.317 -9.061,8.253 C -9.02,8.188 -9,8.104 -9,7.998 L -9,5.871 C -8.52,6.363 -8.057,6.791 -7.611,7.154 C -7.166,7.518 -6.717,7.819 -6.266,8.06 C -5.814,8.3 -5.352,8.481 -4.877,8.604 C -4.402,8.728 -3.902,8.789 -3.375,8.789 C -2.227,8.789 -1.248,8.566 -0.439,8.121 C 0.369,7.676 1.029,7.066 1.539,6.293 C 2.049,5.52 2.42,4.62 2.654,3.595 C 2.889,2.569 3.006,1.482 3.006,0.334"
                 style="fill:#231f20;fill-opacity:1;fill-rule:nonzero;stroke:none"
                 id="path226" /></g><g
               id="g228"
               transform="translate(348.082,127.1797)"><path
                 d="M 0,0 C 0,-0.094 -0.023,-0.173 -0.07,-0.237 C -0.117,-0.302 -0.193,-0.357 -0.299,-0.404 C -0.404,-0.451 -0.551,-0.486 -0.738,-0.51 C -0.926,-0.533 -1.166,-0.545 -1.459,-0.545 C -1.74,-0.545 -1.975,-0.533 -2.162,-0.51 C -2.35,-0.486 -2.498,-0.451 -2.609,-0.404 C -2.721,-0.357 -2.797,-0.302 -2.838,-0.237 C -2.879,-0.173 -2.9,-0.094 -2.9,0 L -2.9,23.484 C -2.9,23.578 -2.879,23.66 -2.838,23.73 C -2.797,23.801 -2.721,23.859 -2.609,23.906 C -2.498,23.953 -2.35,23.988 -2.162,24.012 C -1.975,24.035 -1.74,24.047 -1.459,24.047 C -1.166,24.047 -0.926,24.035 -0.738,24.012 C -0.551,23.988 -0.404,23.953 -0.299,23.906 C -0.193,23.859 -0.117,23.801 -0.07,23.73 C -0.023,23.66 0,23.578 0,23.484 L 0,0 Z"
                 style="fill:#231f20;fill-opacity:1;fill-rule:nonzero;stroke:none"
                 id="path230" /></g><g
               id="g232"
               transform="translate(364.0254,136.6367)"><path
                 d="M 0,0 C 0.035,1.523 -0.303,2.719 -1.016,3.586 C -1.73,4.453 -2.789,4.887 -4.191,4.887 C -4.91,4.887 -5.541,4.752 -6.084,4.482 C -6.625,4.213 -7.08,3.855 -7.445,3.41 C -7.811,2.965 -8.094,2.446 -8.295,1.854 C -8.494,1.263 -8.607,0.645 -8.631,0 L 0,0 Z M 2.918,-0.861 C 2.918,-1.318 2.803,-1.644 2.574,-1.837 C 2.344,-2.03 2.082,-2.127 1.789,-2.127 L -8.631,-2.127 C -8.631,-3.006 -8.543,-3.797 -8.365,-4.5 C -8.189,-5.203 -7.895,-5.807 -7.482,-6.311 C -7.07,-6.814 -6.535,-7.201 -5.875,-7.471 C -5.215,-7.74 -4.408,-7.875 -3.455,-7.875 C -2.701,-7.875 -2.031,-7.813 -1.441,-7.69 C -0.854,-7.567 -0.344,-7.43 0.086,-7.277 C 0.516,-7.125 0.869,-6.987 1.146,-6.864 C 1.424,-6.741 1.633,-6.68 1.773,-6.68 C 1.855,-6.68 1.93,-6.7 1.994,-6.741 C 2.059,-6.782 2.109,-6.844 2.145,-6.926 C 2.18,-7.008 2.207,-7.122 2.225,-7.269 C 2.242,-7.415 2.25,-7.594 2.25,-7.805 C 2.25,-7.957 2.244,-8.089 2.232,-8.2 C 2.221,-8.312 2.207,-8.411 2.189,-8.499 C 2.172,-8.587 2.143,-8.666 2.102,-8.736 C 2.061,-8.807 2.008,-8.874 1.943,-8.938 C 1.879,-9.003 1.688,-9.108 1.371,-9.255 C 1.055,-9.401 0.645,-9.545 0.141,-9.686 C -0.363,-9.826 -0.945,-9.952 -1.607,-10.063 C -2.27,-10.175 -2.977,-10.23 -3.727,-10.23 C -5.027,-10.23 -6.166,-10.049 -7.145,-9.686 C -8.123,-9.322 -8.947,-8.783 -9.615,-8.068 C -10.283,-7.354 -10.787,-6.457 -11.127,-5.379 C -11.467,-4.301 -11.637,-3.047 -11.637,-1.617 C -11.637,-0.258 -11.461,0.964 -11.109,2.048 C -10.758,3.132 -10.25,4.052 -9.588,4.808 C -8.926,5.563 -8.127,6.144 -7.189,6.548 C -6.252,6.952 -5.203,7.154 -4.043,7.154 C -2.801,7.154 -1.742,6.955 -0.869,6.557 C 0.004,6.158 0.721,5.622 1.283,4.948 C 1.846,4.274 2.26,3.483 2.523,2.575 C 2.787,1.667 2.918,0.697 2.918,-0.334 L 2.918,-0.861 Z"
                 style="fill:#231f20;fill-opacity:1;fill-rule:nonzero;stroke:none"
                 id="path234" /></g><g
               id="g236"
               transform="translate(394.8223,127.1797)"><path
                 d="M 0,0 C 0,-0.094 -0.023,-0.173 -0.07,-0.237 C -0.117,-0.302 -0.193,-0.357 -0.299,-0.404 C -0.404,-0.451 -0.551,-0.486 -0.738,-0.51 C -0.926,-0.533 -1.16,-0.545 -1.441,-0.545 C -1.734,-0.545 -1.975,-0.533 -2.162,-0.51 C -2.35,-0.486 -2.498,-0.451 -2.609,-0.404 C -2.721,-0.357 -2.801,-0.302 -2.848,-0.237 C -2.895,-0.173 -2.918,-0.094 -2.918,0 L -2.918,9.615 C -2.918,10.283 -2.977,10.893 -3.094,11.443 C -3.211,11.994 -3.398,12.469 -3.656,12.867 C -3.914,13.266 -4.242,13.57 -4.641,13.781 C -5.039,13.992 -5.508,14.098 -6.047,14.098 C -6.715,14.098 -7.385,13.84 -8.059,13.324 C -8.732,12.809 -9.475,12.053 -10.283,11.057 L -10.283,0 C -10.283,-0.094 -10.307,-0.173 -10.354,-0.237 C -10.4,-0.302 -10.479,-0.357 -10.59,-0.404 C -10.701,-0.451 -10.852,-0.486 -11.039,-0.51 C -11.227,-0.533 -11.461,-0.545 -11.742,-0.545 C -12.012,-0.545 -12.242,-0.533 -12.436,-0.51 C -12.629,-0.486 -12.781,-0.451 -12.893,-0.404 C -13.004,-0.357 -13.08,-0.302 -13.121,-0.237 C -13.162,-0.173 -13.184,-0.094 -13.184,0 L -13.184,9.615 C -13.184,10.283 -13.248,10.893 -13.377,11.443 C -13.506,11.994 -13.699,12.469 -13.957,12.867 C -14.215,13.266 -14.539,13.57 -14.932,13.781 C -15.324,13.992 -15.791,14.098 -16.33,14.098 C -16.998,14.098 -17.672,13.84 -18.352,13.324 C -19.031,12.809 -19.77,12.053 -20.566,11.057 L -20.566,0 C -20.566,-0.094 -20.59,-0.173 -20.637,-0.237 C -20.684,-0.302 -20.76,-0.357 -20.865,-0.404 C -20.971,-0.451 -21.117,-0.486 -21.305,-0.51 C -21.492,-0.533 -21.732,-0.545 -22.025,-0.545 C -22.307,-0.545 -22.541,-0.533 -22.729,-0.51 C -22.916,-0.486 -23.064,-0.451 -23.176,-0.404 C -23.287,-0.357 -23.363,-0.302 -23.404,-0.237 C -23.445,-0.173 -23.467,-0.094 -23.467,0 L -23.467,15.82 C -23.467,15.914 -23.449,15.993 -23.414,16.058 C -23.379,16.122 -23.309,16.181 -23.203,16.233 C -23.098,16.286 -22.963,16.321 -22.799,16.339 C -22.635,16.356 -22.418,16.365 -22.148,16.365 C -21.891,16.365 -21.676,16.356 -21.506,16.339 C -21.336,16.321 -21.205,16.286 -21.111,16.233 C -21.018,16.181 -20.949,16.122 -20.908,16.058 C -20.867,15.993 -20.848,15.914 -20.848,15.82 L -20.848,13.729 C -19.957,14.725 -19.092,15.454 -18.254,15.917 C -17.416,16.38 -16.57,16.611 -15.715,16.611 C -15.059,16.611 -14.469,16.535 -13.947,16.383 C -13.426,16.23 -12.967,16.017 -12.568,15.741 C -12.17,15.466 -11.83,15.138 -11.549,14.757 C -11.268,14.376 -11.033,13.951 -10.846,13.482 C -10.318,14.057 -9.816,14.543 -9.342,14.941 C -8.867,15.34 -8.41,15.662 -7.971,15.908 C -7.531,16.154 -7.104,16.333 -6.688,16.444 C -6.271,16.556 -5.854,16.611 -5.432,16.611 C -4.412,16.611 -3.557,16.433 -2.865,16.075 C -2.174,15.718 -1.613,15.24 -1.186,14.643 C -0.758,14.045 -0.453,13.345 -0.271,12.542 C -0.09,11.739 0,10.893 0,10.002 L 0,0 Z"
                 style="fill:#231f20;fill-opacity:1;fill-rule:nonzero;stroke:none"
                 id="path238" /></g><g
               id="g240"
               transform="translate(410.6953,136.6367)"><path
                 d="M 0,0 C 0.035,1.523 -0.303,2.719 -1.016,3.586 C -1.73,4.453 -2.789,4.887 -4.191,4.887 C -4.91,4.887 -5.541,4.752 -6.084,4.482 C -6.625,4.213 -7.08,3.855 -7.445,3.41 C -7.811,2.965 -8.094,2.446 -8.295,1.854 C -8.494,1.263 -8.607,0.645 -8.631,0 L 0,0 Z M 2.918,-0.861 C 2.918,-1.318 2.803,-1.644 2.574,-1.837 C 2.344,-2.03 2.082,-2.127 1.789,-2.127 L -8.631,-2.127 C -8.631,-3.006 -8.543,-3.797 -8.365,-4.5 C -8.189,-5.203 -7.895,-5.807 -7.482,-6.311 C -7.07,-6.814 -6.535,-7.201 -5.875,-7.471 C -5.215,-7.74 -4.408,-7.875 -3.455,-7.875 C -2.701,-7.875 -2.031,-7.813 -1.441,-7.69 C -0.854,-7.567 -0.344,-7.43 0.086,-7.277 C 0.516,-7.125 0.869,-6.987 1.146,-6.864 C 1.424,-6.741 1.633,-6.68 1.773,-6.68 C 1.855,-6.68 1.93,-6.7 1.994,-6.741 C 2.059,-6.782 2.109,-6.844 2.145,-6.926 C 2.18,-7.008 2.207,-7.122 2.225,-7.269 C 2.242,-7.415 2.25,-7.594 2.25,-7.805 C 2.25,-7.957 2.244,-8.089 2.232,-8.2 C 2.221,-8.312 2.207,-8.411 2.189,-8.499 C 2.172,-8.587 2.143,-8.666 2.102,-8.736 C 2.061,-8.807 2.008,-8.874 1.943,-8.938 C 1.879,-9.003 1.688,-9.108 1.371,-9.255 C 1.055,-9.401 0.645,-9.545 0.141,-9.686 C -0.363,-9.826 -0.945,-9.952 -1.607,-10.063 C -2.27,-10.175 -2.977,-10.23 -3.727,-10.23 C -5.027,-10.23 -6.166,-10.049 -7.145,-9.686 C -8.123,-9.322 -8.947,-8.783 -9.615,-8.068 C -10.283,-7.354 -10.787,-6.457 -11.127,-5.379 C -11.467,-4.301 -11.637,-3.047 -11.637,-1.617 C -11.637,-0.258 -11.461,0.964 -11.109,2.048 C -10.758,3.132 -10.25,4.052 -9.588,4.808 C -8.926,5.563 -8.127,6.144 -7.189,6.548 C -6.252,6.952 -5.203,7.154 -4.043,7.154 C -2.801,7.154 -1.742,6.955 -0.869,6.557 C 0.004,6.158 0.721,5.622 1.283,4.948 C 1.846,4.274 2.26,3.483 2.523,2.575 C 2.787,1.667 2.918,0.697 2.918,-0.334 L 2.918,-0.861 Z"
                 style="fill:#231f20;fill-opacity:1;fill-rule:nonzero;stroke:none"
                 id="path242" /></g><g
               id="g244"
               transform="translate(431.6484,127.1797)"><path
                 d="M 0,0 C 0,-0.094 -0.023,-0.173 -0.07,-0.237 C -0.117,-0.302 -0.193,-0.357 -0.299,-0.404 C -0.404,-0.451 -0.551,-0.486 -0.738,-0.51 C -0.926,-0.533 -1.16,-0.545 -1.441,-0.545 C -1.734,-0.545 -1.975,-0.533 -2.162,-0.51 C -2.35,-0.486 -2.496,-0.451 -2.602,-0.404 C -2.707,-0.357 -2.783,-0.302 -2.83,-0.237 C -2.877,-0.173 -2.9,-0.094 -2.9,0 L -2.9,9.264 C -2.9,10.166 -2.971,10.893 -3.111,11.443 C -3.252,11.994 -3.457,12.469 -3.727,12.867 C -3.996,13.266 -4.344,13.57 -4.771,13.781 C -5.199,13.992 -5.695,14.098 -6.258,14.098 C -6.984,14.098 -7.711,13.84 -8.438,13.324 C -9.164,12.809 -9.926,12.053 -10.723,11.057 L -10.723,0 C -10.723,-0.094 -10.746,-0.173 -10.793,-0.237 C -10.84,-0.302 -10.916,-0.357 -11.021,-0.404 C -11.127,-0.451 -11.273,-0.486 -11.461,-0.51 C -11.648,-0.533 -11.889,-0.545 -12.182,-0.545 C -12.463,-0.545 -12.697,-0.533 -12.885,-0.51 C -13.072,-0.486 -13.221,-0.451 -13.332,-0.404 C -13.443,-0.357 -13.52,-0.302 -13.561,-0.237 C -13.602,-0.173 -13.623,-0.094 -13.623,0 L -13.623,15.82 C -13.623,15.914 -13.605,15.993 -13.57,16.058 C -13.535,16.122 -13.465,16.181 -13.359,16.233 C -13.254,16.286 -13.119,16.321 -12.955,16.339 C -12.791,16.356 -12.574,16.365 -12.305,16.365 C -12.047,16.365 -11.832,16.356 -11.662,16.339 C -11.492,16.321 -11.361,16.286 -11.268,16.233 C -11.174,16.181 -11.105,16.122 -11.064,16.058 C -11.023,15.993 -11.004,15.914 -11.004,15.82 L -11.004,13.729 C -10.113,14.725 -9.225,15.454 -8.34,15.917 C -7.455,16.38 -6.563,16.611 -5.66,16.611 C -4.605,16.611 -3.717,16.433 -2.996,16.075 C -2.275,15.718 -1.693,15.24 -1.248,14.643 C -0.803,14.045 -0.482,13.345 -0.289,12.542 C -0.096,11.739 0,10.775 0,9.65 L 0,0 Z"
                 style="fill:#231f20;fill-opacity:1;fill-rule:nonzero;stroke:none"
                 id="path246" /></g><g
               id="g248"
               transform="translate(444.832,128.3398)"><path
                 d="M 0,0 C 0,-0.34 -0.023,-0.609 -0.07,-0.809 C -0.117,-1.008 -0.188,-1.154 -0.281,-1.248 C -0.375,-1.342 -0.516,-1.43 -0.703,-1.512 C -0.891,-1.594 -1.104,-1.661 -1.344,-1.714 C -1.584,-1.767 -1.84,-1.811 -2.109,-1.846 C -2.379,-1.881 -2.648,-1.898 -2.918,-1.898 C -3.738,-1.898 -4.441,-1.79 -5.027,-1.573 C -5.613,-1.356 -6.094,-1.028 -6.469,-0.589 C -6.844,-0.149 -7.115,0.407 -7.285,1.081 C -7.455,1.755 -7.541,2.549 -7.541,3.463 L -7.541,12.709 L -9.756,12.709 C -9.932,12.709 -10.072,12.803 -10.178,12.99 C -10.283,13.178 -10.336,13.482 -10.336,13.904 C -10.336,14.127 -10.32,14.314 -10.291,14.467 C -10.262,14.619 -10.225,14.745 -10.178,14.845 C -10.131,14.944 -10.068,15.015 -9.992,15.056 C -9.916,15.097 -9.832,15.117 -9.738,15.117 L -7.541,15.117 L -7.541,18.879 C -7.541,18.961 -7.52,19.037 -7.479,19.107 C -7.438,19.178 -7.361,19.239 -7.25,19.292 C -7.139,19.345 -6.99,19.383 -6.803,19.406 C -6.615,19.43 -6.381,19.441 -6.1,19.441 C -5.807,19.441 -5.566,19.43 -5.379,19.406 C -5.191,19.383 -5.045,19.345 -4.939,19.292 C -4.834,19.239 -4.758,19.178 -4.711,19.107 C -4.664,19.037 -4.641,18.961 -4.641,18.879 L -4.641,15.117 L -0.58,15.117 C -0.486,15.117 -0.404,15.097 -0.334,15.056 C -0.264,15.015 -0.201,14.944 -0.148,14.845 C -0.096,14.745 -0.059,14.619 -0.035,14.467 C -0.012,14.314 0,14.127 0,13.904 C 0,13.482 -0.053,13.178 -0.158,12.99 C -0.264,12.803 -0.404,12.709 -0.58,12.709 L -4.641,12.709 L -4.641,3.885 C -4.641,2.795 -4.479,1.972 -4.156,1.415 C -3.834,0.858 -3.258,0.58 -2.426,0.58 C -2.156,0.58 -1.916,0.606 -1.705,0.659 C -1.494,0.712 -1.307,0.768 -1.143,0.826 C -0.979,0.885 -0.838,0.94 -0.721,0.993 C -0.604,1.046 -0.498,1.072 -0.404,1.072 C -0.346,1.072 -0.289,1.058 -0.236,1.028 C -0.184,0.999 -0.143,0.943 -0.113,0.861 C -0.084,0.779 -0.059,0.668 -0.035,0.527 C -0.012,0.387 0,0.211 0,0"
                 style="fill:#231f20;fill-opacity:1;fill-rule:nonzero;stroke:none"
                 id="path250" /></g><g
               id="g252"
               transform="translate(457.2598,134.3867)"><path
                 d="M 0,0 L -2.479,0 C -3.275,0 -3.967,-0.067 -4.553,-0.202 C -5.139,-0.337 -5.625,-0.536 -6.012,-0.8 C -6.398,-1.063 -6.682,-1.38 -6.863,-1.749 C -7.045,-2.118 -7.137,-2.543 -7.137,-3.023 C -7.137,-3.844 -6.875,-4.497 -6.354,-4.983 C -5.832,-5.47 -5.104,-5.713 -4.166,-5.713 C -3.404,-5.713 -2.697,-5.52 -2.047,-5.133 C -1.396,-4.746 -0.715,-4.154 0,-3.357 L 0,0 Z M 2.883,-7.225 C 2.883,-7.365 2.836,-7.471 2.742,-7.541 C 2.648,-7.611 2.52,-7.664 2.355,-7.699 C 2.191,-7.734 1.951,-7.752 1.635,-7.752 C 1.33,-7.752 1.088,-7.734 0.906,-7.699 C 0.725,-7.664 0.592,-7.611 0.51,-7.541 C 0.428,-7.471 0.387,-7.365 0.387,-7.225 L 0.387,-5.643 C -0.305,-6.381 -1.074,-6.955 -1.924,-7.365 C -2.773,-7.775 -3.674,-7.98 -4.623,-7.98 C -5.455,-7.98 -6.207,-7.872 -6.881,-7.655 C -7.555,-7.438 -8.129,-7.125 -8.604,-6.715 C -9.078,-6.305 -9.447,-5.801 -9.711,-5.203 C -9.975,-4.605 -10.107,-3.926 -10.107,-3.164 C -10.107,-2.273 -9.926,-1.5 -9.563,-0.844 C -9.199,-0.188 -8.678,0.357 -7.998,0.791 C -7.318,1.225 -6.486,1.55 -5.502,1.767 C -4.518,1.983 -3.41,2.092 -2.18,2.092 L 0,2.092 L 0,3.322 C 0,3.932 -0.064,4.471 -0.193,4.939 C -0.322,5.408 -0.529,5.798 -0.816,6.108 C -1.104,6.419 -1.477,6.653 -1.934,6.812 C -2.391,6.97 -2.953,7.049 -3.621,7.049 C -4.336,7.049 -4.977,6.964 -5.545,6.794 C -6.113,6.624 -6.611,6.437 -7.039,6.231 C -7.467,6.026 -7.824,5.839 -8.111,5.669 C -8.398,5.499 -8.613,5.414 -8.754,5.414 C -8.848,5.414 -8.93,5.438 -9,5.484 C -9.07,5.531 -9.131,5.602 -9.184,5.695 C -9.236,5.789 -9.275,5.909 -9.299,6.056 C -9.322,6.202 -9.334,6.363 -9.334,6.539 C -9.334,6.832 -9.313,7.063 -9.271,7.233 C -9.23,7.403 -9.131,7.564 -8.973,7.717 C -8.814,7.869 -8.543,8.048 -8.156,8.253 C -7.77,8.458 -7.324,8.646 -6.82,8.815 C -6.316,8.985 -5.766,9.126 -5.168,9.237 C -4.57,9.349 -3.967,9.404 -3.357,9.404 C -2.221,9.404 -1.254,9.275 -0.457,9.018 C 0.34,8.76 0.984,8.382 1.477,7.884 C 1.969,7.386 2.326,6.768 2.549,6.029 C 2.771,5.291 2.883,4.43 2.883,3.445 L 2.883,-7.225 Z"
                 style="fill:#231f20;fill-opacity:1;fill-rule:nonzero;stroke:none"
                 id="path254" /></g><g
               id="g256"
               transform="translate(480.1465,148.3438)"><path
                 d="M 0,0 C 0,-0.68 -0.129,-1.143 -0.387,-1.389 C -0.645,-1.635 -1.119,-1.758 -1.811,-1.758 C -2.49,-1.758 -2.955,-1.638 -3.207,-1.397 C -3.459,-1.157 -3.586,-0.703 -3.586,-0.035 C -3.586,0.645 -3.457,1.107 -3.199,1.354 C -2.941,1.6 -2.467,1.723 -1.775,1.723 C -1.096,1.723 -0.629,1.603 -0.377,1.362 C -0.125,1.122 0,0.668 0,0 M -1.248,-4.887 C -0.896,-4.887 -0.656,-4.966 -0.527,-5.124 C -0.398,-5.282 -0.334,-5.514 -0.334,-5.818 L -0.334,-21.164 C -0.334,-21.258 -0.357,-21.337 -0.404,-21.401 C -0.451,-21.466 -0.529,-21.521 -0.641,-21.568 C -0.752,-21.615 -0.902,-21.65 -1.09,-21.674 C -1.277,-21.697 -1.506,-21.709 -1.775,-21.709 C -2.068,-21.709 -2.309,-21.697 -2.496,-21.674 C -2.684,-21.65 -2.832,-21.615 -2.943,-21.568 C -3.055,-21.521 -3.135,-21.466 -3.182,-21.401 C -3.229,-21.337 -3.252,-21.258 -3.252,-21.164 L -3.252,-7.295 L -11.426,-7.295 L -11.426,-16.119 C -11.426,-17.209 -11.264,-18.032 -10.941,-18.589 C -10.619,-19.146 -10.043,-19.424 -9.211,-19.424 C -8.941,-19.424 -8.701,-19.397 -8.49,-19.345 C -8.279,-19.292 -8.092,-19.236 -7.928,-19.178 C -7.764,-19.119 -7.623,-19.063 -7.506,-19.011 C -7.389,-18.958 -7.283,-18.932 -7.189,-18.932 C -7.131,-18.932 -7.074,-18.946 -7.021,-18.976 C -6.969,-19.005 -6.928,-19.061 -6.898,-19.143 C -6.869,-19.225 -6.844,-19.336 -6.82,-19.477 C -6.797,-19.617 -6.785,-19.793 -6.785,-20.004 C -6.785,-20.344 -6.809,-20.61 -6.855,-20.804 C -6.902,-20.997 -6.973,-21.144 -7.066,-21.243 C -7.16,-21.343 -7.301,-21.434 -7.488,-21.516 C -7.676,-21.598 -7.889,-21.665 -8.129,-21.718 C -8.369,-21.771 -8.625,-21.814 -8.895,-21.85 C -9.164,-21.885 -9.434,-21.902 -9.703,-21.902 C -10.523,-21.902 -11.227,-21.794 -11.813,-21.577 C -12.398,-21.36 -12.879,-21.032 -13.254,-20.593 C -13.629,-20.153 -13.9,-19.597 -14.07,-18.923 C -14.24,-18.249 -14.326,-17.455 -14.326,-16.541 L -14.326,-7.295 L -16.541,-7.295 C -16.717,-7.295 -16.857,-7.201 -16.963,-7.014 C -17.068,-6.826 -17.121,-6.521 -17.121,-6.1 C -17.121,-5.877 -17.105,-5.689 -17.076,-5.537 C -17.047,-5.385 -17.01,-5.259 -16.963,-5.159 C -16.916,-5.06 -16.854,-4.989 -16.777,-4.948 C -16.701,-4.907 -16.617,-4.887 -16.523,-4.887 L -14.326,-4.887 L -14.326,-1.125 C -14.326,-1.043 -14.305,-0.967 -14.264,-0.896 C -14.223,-0.826 -14.146,-0.765 -14.035,-0.712 C -13.924,-0.659 -13.775,-0.621 -13.588,-0.598 C -13.4,-0.574 -13.166,-0.563 -12.885,-0.563 C -12.592,-0.563 -12.352,-0.574 -12.164,-0.598 C -11.977,-0.621 -11.83,-0.659 -11.725,-0.712 C -11.619,-0.765 -11.543,-0.826 -11.496,-0.896 C -11.449,-0.967 -11.426,-1.043 -11.426,-1.125 L -11.426,-4.887 L -1.248,-4.887 Z"
                 style="fill:#231f20;fill-opacity:1;fill-rule:nonzero;stroke:none"
                 id="path258" /></g><g
               id="g260"
               transform="translate(496.8984,135.0723)"><path
                 d="M 0,0 C 0,0.855 -0.08,1.664 -0.238,2.426 C -0.398,3.188 -0.662,3.855 -1.029,4.43 C -1.395,5.004 -1.893,5.458 -2.518,5.792 C -3.145,6.126 -3.926,6.293 -4.859,6.293 C -5.723,6.293 -6.465,6.141 -7.086,5.836 C -7.707,5.531 -8.219,5.101 -8.619,4.544 C -9.021,3.987 -9.32,3.328 -9.516,2.566 C -9.711,1.805 -9.809,0.973 -9.809,0.07 C -9.809,-0.797 -9.729,-1.611 -9.568,-2.373 C -9.408,-3.135 -9.143,-3.8 -8.77,-4.368 C -8.398,-4.937 -7.898,-5.388 -7.271,-5.722 C -6.645,-6.056 -5.865,-6.223 -4.93,-6.223 C -4.078,-6.223 -3.34,-6.07 -2.713,-5.766 C -2.086,-5.461 -1.572,-5.033 -1.17,-4.482 C -0.768,-3.932 -0.473,-3.275 -0.283,-2.514 C -0.094,-1.752 0,-0.914 0,0 M 3.006,0.193 C 3.006,-1.096 2.836,-2.282 2.496,-3.366 C 2.156,-4.45 1.65,-5.385 0.977,-6.17 C 0.303,-6.955 -0.541,-7.567 -1.555,-8.007 C -2.568,-8.446 -3.744,-8.666 -5.08,-8.666 C -6.381,-8.666 -7.514,-8.473 -8.48,-8.086 C -9.447,-7.699 -10.254,-7.137 -10.898,-6.398 C -11.543,-5.66 -12.023,-4.764 -12.34,-3.709 C -12.656,-2.654 -12.814,-1.459 -12.814,-0.123 C -12.814,1.166 -12.646,2.353 -12.313,3.437 C -11.979,4.521 -11.475,5.455 -10.801,6.24 C -10.127,7.025 -9.287,7.635 -8.279,8.068 C -7.271,8.502 -6.094,8.719 -4.746,8.719 C -3.445,8.719 -2.311,8.525 -1.344,8.139 C -0.377,7.752 0.428,7.189 1.072,6.451 C 1.717,5.713 2.201,4.816 2.523,3.762 C 2.846,2.707 3.006,1.518 3.006,0.193"
                 style="fill:#231f20;fill-opacity:1;fill-rule:nonzero;stroke:none"
                 id="path262" /></g><g
               id="g264"
               transform="translate(517.7988,127.1797)"><path
                 d="M 0,0 C 0,-0.094 -0.023,-0.173 -0.07,-0.237 C -0.117,-0.302 -0.193,-0.357 -0.299,-0.404 C -0.404,-0.451 -0.551,-0.486 -0.738,-0.51 C -0.926,-0.533 -1.16,-0.545 -1.441,-0.545 C -1.734,-0.545 -1.975,-0.533 -2.162,-0.51 C -2.35,-0.486 -2.496,-0.451 -2.602,-0.404 C -2.707,-0.357 -2.783,-0.302 -2.83,-0.237 C -2.877,-0.173 -2.9,-0.094 -2.9,0 L -2.9,9.264 C -2.9,10.166 -2.971,10.893 -3.111,11.443 C -3.252,11.994 -3.457,12.469 -3.727,12.867 C -3.996,13.266 -4.344,13.57 -4.771,13.781 C -5.199,13.992 -5.695,14.098 -6.258,14.098 C -6.984,14.098 -7.711,13.84 -8.438,13.324 C -9.164,12.809 -9.926,12.053 -10.723,11.057 L -10.723,0 C -10.723,-0.094 -10.746,-0.173 -10.793,-0.237 C -10.84,-0.302 -10.916,-0.357 -11.021,-0.404 C -11.127,-0.451 -11.273,-0.486 -11.461,-0.51 C -11.648,-0.533 -11.889,-0.545 -12.182,-0.545 C -12.463,-0.545 -12.697,-0.533 -12.885,-0.51 C -13.072,-0.486 -13.221,-0.451 -13.332,-0.404 C -13.443,-0.357 -13.52,-0.302 -13.561,-0.237 C -13.602,-0.173 -13.623,-0.094 -13.623,0 L -13.623,15.82 C -13.623,15.914 -13.605,15.993 -13.57,16.058 C -13.535,16.122 -13.465,16.181 -13.359,16.233 C -13.254,16.286 -13.119,16.321 -12.955,16.339 C -12.791,16.356 -12.574,16.365 -12.305,16.365 C -12.047,16.365 -11.832,16.356 -11.662,16.339 C -11.492,16.321 -11.361,16.286 -11.268,16.233 C -11.174,16.181 -11.105,16.122 -11.064,16.058 C -11.023,15.993 -11.004,15.914 -11.004,15.82 L -11.004,13.729 C -10.113,14.725 -9.225,15.454 -8.34,15.917 C -7.455,16.38 -6.563,16.611 -5.66,16.611 C -4.605,16.611 -3.717,16.433 -2.996,16.075 C -2.275,15.718 -1.693,15.24 -1.248,14.643 C -0.803,14.045 -0.482,13.345 -0.289,12.542 C -0.096,11.739 0,10.775 0,9.65 L 0,0 Z"
                 style="fill:#231f20;fill-opacity:1;fill-rule:nonzero;stroke:none"
                 id="path266" /></g><g
               id="g268"
               transform="translate(234.1177,124.1758)"><path
                 d="M 0,0 C 0,-6.627 -4.908,-12 -10.961,-12 L -214.04,-12 C -220.092,-12 -225,-6.627 -225,0 L -225,25.266 C -225,31.893 -220.092,37.266 -214.04,37.266 L -10.961,37.266 C -4.908,37.266 0,31.893 0,25.266 L 0,0 Z"
                 style="fill:#ffffff;fill-opacity:1;fill-rule:nonzero;stroke:none"
                 id="path270" /></g><g
               id="g272"
               transform="translate(234.1177,124.1758)"><path
                 d="M 0,0 C 0,-6.627 -4.908,-12 -10.961,-12 L -214.04,-12 C -220.092,-12 -225,-6.627 -225,0 L -225,25.266 C -225,31.893 -220.092,37.266 -214.04,37.266 L -10.961,37.266 C -4.908,37.266 0,31.893 0,25.266 L 0,0 Z"
                 style="fill:none;stroke:#231f20;stroke-width:5;stroke-linecap:butt;stroke-linejoin:miter;stroke-miterlimit:4;stroke-dasharray:none;stroke-opacity:1"
                 id="path274" /></g><g
               id="g276"
               transform="translate(49.8306,138.1064)"><path
                 d="M 0,0 C 0.035,1.523 -0.304,2.719 -1.017,3.586 C -1.73,4.453 -2.789,4.887 -4.191,4.887 C -4.911,4.887 -5.542,4.752 -6.084,4.482 C -6.626,4.213 -7.081,3.855 -7.446,3.41 C -7.812,2.965 -8.094,2.446 -8.295,1.854 C -8.496,1.263 -8.607,0.645 -8.631,0 L 0,0 Z M 2.918,-0.861 C 2.918,-1.318 2.803,-1.644 2.574,-1.837 C 2.344,-2.03 2.082,-2.127 1.788,-2.127 L -8.631,-2.127 C -8.631,-3.006 -8.542,-3.797 -8.366,-4.5 C -8.189,-5.203 -7.895,-5.807 -7.483,-6.311 C -7.071,-6.814 -6.535,-7.201 -5.875,-7.471 C -5.216,-7.74 -4.409,-7.875 -3.456,-7.875 C -2.702,-7.875 -2.031,-7.813 -1.442,-7.69 C -0.853,-7.567 -0.344,-7.43 0.086,-7.277 C 0.516,-7.125 0.869,-6.987 1.146,-6.864 C 1.423,-6.741 1.632,-6.68 1.773,-6.68 C 1.855,-6.68 1.929,-6.7 1.994,-6.741 C 2.059,-6.782 2.108,-6.844 2.144,-6.926 C 2.179,-7.008 2.206,-7.122 2.223,-7.269 C 2.241,-7.415 2.25,-7.594 2.25,-7.805 C 2.25,-7.957 2.244,-8.089 2.232,-8.2 C 2.221,-8.312 2.206,-8.411 2.188,-8.499 C 2.171,-8.587 2.142,-8.666 2.101,-8.736 C 2.06,-8.807 2.007,-8.874 1.942,-8.938 C 1.878,-9.003 1.688,-9.108 1.371,-9.255 C 1.055,-9.401 0.645,-9.545 0.141,-9.686 C -0.363,-9.826 -0.946,-9.952 -1.608,-10.063 C -2.271,-10.175 -2.977,-10.23 -3.727,-10.23 C -5.027,-10.23 -6.167,-10.049 -7.146,-9.686 C -8.124,-9.322 -8.947,-8.783 -9.615,-8.068 C -10.283,-7.354 -10.787,-6.457 -11.127,-5.379 C -11.467,-4.301 -11.637,-3.047 -11.637,-1.617 C -11.637,-0.258 -11.461,0.964 -11.109,2.048 C -10.758,3.132 -10.251,4.052 -9.589,4.808 C -8.927,5.563 -8.127,6.144 -7.189,6.548 C -6.252,6.952 -5.203,7.154 -4.043,7.154 C -2.801,7.154 -1.743,6.955 -0.87,6.557 C 0.003,6.158 0.721,5.622 1.283,4.948 C 1.846,4.274 2.259,3.483 2.522,2.575 C 2.786,1.667 2.918,0.697 2.918,-0.334 L 2.918,-0.861 Z"
                 style="fill:#231f20;fill-opacity:1;fill-rule:nonzero;stroke:none"
                 id="path278" /></g><g
               id="g280"
               transform="translate(69.9575,144.5049)"><path
                 d="M 0,0 C 0,-0.047 -0.003,-0.097 -0.009,-0.149 C -0.015,-0.202 -0.023,-0.258 -0.035,-0.316 C -0.047,-0.375 -0.062,-0.439 -0.079,-0.51 C -0.097,-0.58 -0.117,-0.656 -0.141,-0.738 L -5.537,-15.768 C -5.584,-15.896 -5.646,-16.002 -5.722,-16.084 C -5.798,-16.166 -5.912,-16.23 -6.064,-16.277 C -6.217,-16.324 -6.41,-16.356 -6.645,-16.374 C -6.879,-16.392 -7.172,-16.4 -7.523,-16.4 C -7.875,-16.4 -8.168,-16.389 -8.402,-16.365 C -8.637,-16.342 -8.827,-16.307 -8.974,-16.26 C -9.12,-16.213 -9.234,-16.148 -9.316,-16.066 C -9.398,-15.984 -9.463,-15.885 -9.51,-15.768 L -14.889,-0.738 C -14.936,-0.598 -14.974,-0.475 -15.003,-0.369 C -15.032,-0.264 -15.05,-0.185 -15.056,-0.132 C -15.062,-0.079 -15.064,-0.035 -15.064,0 C -15.064,0.094 -15.041,0.176 -14.994,0.246 C -14.947,0.316 -14.868,0.372 -14.757,0.413 C -14.646,0.454 -14.499,0.48 -14.317,0.492 C -14.136,0.504 -13.91,0.51 -13.641,0.51 C -13.301,0.51 -13.028,0.501 -12.823,0.483 C -12.618,0.466 -12.46,0.434 -12.349,0.387 C -12.237,0.34 -12.155,0.281 -12.103,0.211 C -12.05,0.141 -12,0.053 -11.953,-0.053 L -7.488,-13.096 L -7.418,-13.307 L -7.365,-13.096 L -2.953,-0.053 C -2.93,0.053 -2.889,0.141 -2.83,0.211 C -2.771,0.281 -2.687,0.34 -2.575,0.387 C -2.464,0.434 -2.312,0.466 -2.118,0.483 C -1.925,0.501 -1.67,0.51 -1.354,0.51 C -1.084,0.51 -0.861,0.504 -0.686,0.492 C -0.51,0.48 -0.372,0.451 -0.272,0.404 C -0.173,0.357 -0.103,0.302 -0.062,0.237 C -0.021,0.173 0,0.094 0,0"
                 style="fill:#231f20;fill-opacity:1;fill-rule:nonzero;stroke:none"
                 id="path282" /></g><g
               id="g284"
               transform="translate(81.7524,135.8564)"><path
                 d="M 0,0 L -2.479,0 C -3.275,0 -3.967,-0.067 -4.553,-0.202 C -5.139,-0.337 -5.625,-0.536 -6.012,-0.8 C -6.398,-1.063 -6.683,-1.38 -6.864,-1.749 C -7.046,-2.118 -7.137,-2.543 -7.137,-3.023 C -7.137,-3.844 -6.876,-4.497 -6.354,-4.983 C -5.833,-5.47 -5.104,-5.713 -4.166,-5.713 C -3.404,-5.713 -2.698,-5.52 -2.048,-5.133 C -1.397,-4.746 -0.715,-4.154 0,-3.357 L 0,0 Z M 2.883,-7.225 C 2.883,-7.365 2.836,-7.471 2.742,-7.541 C 2.648,-7.611 2.52,-7.664 2.355,-7.699 C 2.191,-7.734 1.951,-7.752 1.635,-7.752 C 1.33,-7.752 1.087,-7.734 0.905,-7.699 C 0.724,-7.664 0.592,-7.611 0.51,-7.541 C 0.428,-7.471 0.387,-7.365 0.387,-7.225 L 0.387,-5.643 C -0.305,-6.381 -1.075,-6.955 -1.925,-7.365 C -2.774,-7.775 -3.674,-7.98 -4.623,-7.98 C -5.455,-7.98 -6.208,-7.872 -6.882,-7.655 C -7.556,-7.438 -8.13,-7.125 -8.604,-6.715 C -9.079,-6.305 -9.448,-5.801 -9.712,-5.203 C -9.976,-4.605 -10.107,-3.926 -10.107,-3.164 C -10.107,-2.273 -9.926,-1.5 -9.563,-0.844 C -9.199,-0.188 -8.678,0.357 -7.998,0.791 C -7.318,1.225 -6.486,1.55 -5.502,1.767 C -4.518,1.983 -3.41,2.092 -2.18,2.092 L 0,2.092 L 0,3.322 C 0,3.932 -0.064,4.471 -0.193,4.939 C -0.322,5.408 -0.53,5.798 -0.817,6.108 C -1.104,6.419 -1.477,6.653 -1.934,6.812 C -2.391,6.97 -2.953,7.049 -3.621,7.049 C -4.336,7.049 -4.978,6.964 -5.546,6.794 C -6.114,6.624 -6.612,6.437 -7.04,6.231 C -7.468,6.026 -7.825,5.839 -8.112,5.669 C -8.399,5.499 -8.613,5.414 -8.754,5.414 C -8.848,5.414 -8.93,5.438 -9,5.484 C -9.07,5.531 -9.132,5.602 -9.185,5.695 C -9.237,5.789 -9.275,5.909 -9.299,6.056 C -9.322,6.202 -9.334,6.363 -9.334,6.539 C -9.334,6.832 -9.313,7.063 -9.272,7.233 C -9.231,7.403 -9.132,7.564 -8.974,7.717 C -8.815,7.869 -8.543,8.048 -8.156,8.253 C -7.77,8.458 -7.324,8.646 -6.82,8.815 C -6.316,8.985 -5.766,9.126 -5.168,9.237 C -4.57,9.349 -3.967,9.404 -3.357,9.404 C -2.221,9.404 -1.254,9.275 -0.457,9.018 C 0.34,8.76 0.984,8.382 1.477,7.884 C 1.969,7.386 2.326,6.768 2.549,6.029 C 2.771,5.291 2.883,4.43 2.883,3.445 L 2.883,-7.225 Z"
                 style="fill:#231f20;fill-opacity:1;fill-rule:nonzero;stroke:none"
                 id="path286" /></g><g
               id="g288"
               transform="translate(92.8618,128.6494)"><path
                 d="M 0,0 C 0,-0.094 -0.023,-0.173 -0.07,-0.237 C -0.117,-0.302 -0.193,-0.357 -0.299,-0.404 C -0.404,-0.451 -0.551,-0.486 -0.738,-0.51 C -0.926,-0.533 -1.166,-0.545 -1.459,-0.545 C -1.74,-0.545 -1.975,-0.533 -2.162,-0.51 C -2.35,-0.486 -2.499,-0.451 -2.61,-0.404 C -2.722,-0.357 -2.798,-0.302 -2.839,-0.237 C -2.88,-0.173 -2.9,-0.094 -2.9,0 L -2.9,23.484 C -2.9,23.578 -2.88,23.66 -2.839,23.73 C -2.798,23.801 -2.722,23.859 -2.61,23.906 C -2.499,23.953 -2.35,23.988 -2.162,24.012 C -1.975,24.035 -1.74,24.047 -1.459,24.047 C -1.166,24.047 -0.926,24.035 -0.738,24.012 C -0.551,23.988 -0.404,23.953 -0.299,23.906 C -0.193,23.859 -0.117,23.801 -0.07,23.73 C -0.023,23.66 0,23.578 0,23.484 L 0,0 Z"
                 style="fill:#231f20;fill-opacity:1;fill-rule:nonzero;stroke:none"
                 id="path290" /></g><g
               id="g292"
               transform="translate(111.7759,128.6494)"><path
                 d="M 0,0 C 0,-0.094 -0.021,-0.173 -0.062,-0.237 C -0.103,-0.302 -0.176,-0.357 -0.281,-0.404 C -0.387,-0.451 -0.524,-0.486 -0.694,-0.51 C -0.864,-0.533 -1.072,-0.545 -1.318,-0.545 C -1.588,-0.545 -1.808,-0.533 -1.978,-0.51 C -2.147,-0.486 -2.282,-0.451 -2.382,-0.404 C -2.481,-0.357 -2.549,-0.302 -2.584,-0.237 C -2.619,-0.173 -2.637,-0.094 -2.637,0 L -2.637,2.092 C -3.539,1.096 -4.43,0.369 -5.309,-0.088 C -6.188,-0.545 -7.078,-0.773 -7.98,-0.773 C -9.035,-0.773 -9.923,-0.598 -10.644,-0.246 C -11.364,0.105 -11.947,0.583 -12.393,1.187 C -12.838,1.79 -13.157,2.493 -13.351,3.296 C -13.544,4.099 -13.641,5.074 -13.641,6.223 L -13.641,15.82 C -13.641,15.914 -13.62,15.993 -13.579,16.058 C -13.538,16.122 -13.459,16.181 -13.342,16.233 C -13.225,16.286 -13.072,16.321 -12.885,16.339 C -12.697,16.356 -12.463,16.365 -12.182,16.365 C -11.9,16.365 -11.666,16.356 -11.479,16.339 C -11.291,16.321 -11.142,16.286 -11.03,16.233 C -10.919,16.181 -10.84,16.122 -10.793,16.058 C -10.746,15.993 -10.723,15.914 -10.723,15.82 L -10.723,6.609 C -10.723,5.684 -10.655,4.942 -10.521,4.386 C -10.386,3.829 -10.181,3.354 -9.905,2.962 C -9.63,2.569 -9.281,2.265 -8.859,2.048 C -8.438,1.831 -7.945,1.723 -7.383,1.723 C -6.656,1.723 -5.933,1.98 -5.212,2.496 C -4.491,3.012 -3.727,3.768 -2.918,4.764 L -2.918,15.82 C -2.918,15.914 -2.897,15.993 -2.856,16.058 C -2.815,16.122 -2.736,16.181 -2.619,16.233 C -2.502,16.286 -2.353,16.321 -2.171,16.339 C -1.989,16.356 -1.752,16.365 -1.459,16.365 C -1.178,16.365 -0.943,16.356 -0.756,16.339 C -0.568,16.321 -0.422,16.286 -0.316,16.233 C -0.211,16.181 -0.132,16.122 -0.079,16.058 C -0.026,15.993 0,15.914 0,15.82 L 0,0 Z"
                 style="fill:#231f20;fill-opacity:1;fill-rule:nonzero;stroke:none"
                 id="path294" /></g><g
               id="g296"
               transform="translate(126.1724,135.8564)"><path
                 d="M 0,0 L -2.479,0 C -3.275,0 -3.967,-0.067 -4.553,-0.202 C -5.139,-0.337 -5.625,-0.536 -6.012,-0.8 C -6.398,-1.063 -6.683,-1.38 -6.864,-1.749 C -7.046,-2.118 -7.137,-2.543 -7.137,-3.023 C -7.137,-3.844 -6.876,-4.497 -6.354,-4.983 C -5.833,-5.47 -5.104,-5.713 -4.166,-5.713 C -3.404,-5.713 -2.698,-5.52 -2.048,-5.133 C -1.397,-4.746 -0.715,-4.154 0,-3.357 L 0,0 Z M 2.883,-7.225 C 2.883,-7.365 2.836,-7.471 2.742,-7.541 C 2.648,-7.611 2.52,-7.664 2.355,-7.699 C 2.191,-7.734 1.951,-7.752 1.635,-7.752 C 1.33,-7.752 1.087,-7.734 0.905,-7.699 C 0.724,-7.664 0.592,-7.611 0.51,-7.541 C 0.428,-7.471 0.387,-7.365 0.387,-7.225 L 0.387,-5.643 C -0.305,-6.381 -1.075,-6.955 -1.925,-7.365 C -2.774,-7.775 -3.674,-7.98 -4.623,-7.98 C -5.455,-7.98 -6.208,-7.872 -6.882,-7.655 C -7.556,-7.438 -8.13,-7.125 -8.604,-6.715 C -9.079,-6.305 -9.448,-5.801 -9.712,-5.203 C -9.976,-4.605 -10.107,-3.926 -10.107,-3.164 C -10.107,-2.273 -9.926,-1.5 -9.563,-0.844 C -9.199,-0.188 -8.678,0.357 -7.998,0.791 C -7.318,1.225 -6.486,1.55 -5.502,1.767 C -4.518,1.983 -3.41,2.092 -2.18,2.092 L 0,2.092 L 0,3.322 C 0,3.932 -0.064,4.471 -0.193,4.939 C -0.322,5.408 -0.53,5.798 -0.817,6.108 C -1.104,6.419 -1.477,6.653 -1.934,6.812 C -2.391,6.97 -2.953,7.049 -3.621,7.049 C -4.336,7.049 -4.978,6.964 -5.546,6.794 C -6.114,6.624 -6.612,6.437 -7.04,6.231 C -7.468,6.026 -7.825,5.839 -8.112,5.669 C -8.399,5.499 -8.613,5.414 -8.754,5.414 C -8.848,5.414 -8.93,5.438 -9,5.484 C -9.07,5.531 -9.132,5.602 -9.185,5.695 C -9.237,5.789 -9.275,5.909 -9.299,6.056 C -9.322,6.202 -9.334,6.363 -9.334,6.539 C -9.334,6.832 -9.313,7.063 -9.272,7.233 C -9.231,7.403 -9.132,7.564 -8.974,7.717 C -8.815,7.869 -8.543,8.048 -8.156,8.253 C -7.77,8.458 -7.324,8.646 -6.82,8.815 C -6.316,8.985 -5.766,9.126 -5.168,9.237 C -4.57,9.349 -3.967,9.404 -3.357,9.404 C -2.221,9.404 -1.254,9.275 -0.457,9.018 C 0.34,8.76 0.984,8.382 1.477,7.884 C 1.969,7.386 2.326,6.768 2.549,6.029 C 2.771,5.291 2.883,4.43 2.883,3.445 L 2.883,-7.225 Z"
                 style="fill:#231f20;fill-opacity:1;fill-rule:nonzero;stroke:none"
                 id="path298" /></g><g
               id="g300"
               transform="translate(149.0591,149.8135)"><path
                 d="M 0,0 C 0,-0.68 -0.129,-1.143 -0.387,-1.389 C -0.645,-1.635 -1.119,-1.758 -1.811,-1.758 C -2.49,-1.758 -2.956,-1.638 -3.208,-1.397 C -3.46,-1.157 -3.586,-0.703 -3.586,-0.035 C -3.586,0.645 -3.457,1.107 -3.199,1.354 C -2.941,1.6 -2.467,1.723 -1.775,1.723 C -1.096,1.723 -0.63,1.603 -0.378,1.362 C -0.126,1.122 0,0.668 0,0 M -1.248,-4.887 C -0.896,-4.887 -0.656,-4.966 -0.527,-5.124 C -0.398,-5.282 -0.334,-5.514 -0.334,-5.818 L -0.334,-21.164 C -0.334,-21.258 -0.357,-21.337 -0.404,-21.401 C -0.451,-21.466 -0.53,-21.521 -0.642,-21.568 C -0.753,-21.615 -0.902,-21.65 -1.09,-21.674 C -1.277,-21.697 -1.506,-21.709 -1.775,-21.709 C -2.068,-21.709 -2.309,-21.697 -2.496,-21.674 C -2.684,-21.65 -2.833,-21.615 -2.944,-21.568 C -3.056,-21.521 -3.135,-21.466 -3.182,-21.401 C -3.229,-21.337 -3.252,-21.258 -3.252,-21.164 L -3.252,-7.295 L -11.426,-7.295 L -11.426,-16.119 C -11.426,-17.209 -11.265,-18.032 -10.942,-18.589 C -10.62,-19.146 -10.043,-19.424 -9.211,-19.424 C -8.941,-19.424 -8.701,-19.397 -8.49,-19.345 C -8.279,-19.292 -8.092,-19.236 -7.928,-19.178 C -7.764,-19.119 -7.623,-19.063 -7.506,-19.011 C -7.389,-18.958 -7.283,-18.932 -7.189,-18.932 C -7.131,-18.932 -7.075,-18.946 -7.022,-18.976 C -6.97,-19.005 -6.929,-19.061 -6.899,-19.143 C -6.87,-19.225 -6.844,-19.336 -6.82,-19.477 C -6.797,-19.617 -6.785,-19.793 -6.785,-20.004 C -6.785,-20.344 -6.809,-20.61 -6.855,-20.804 C -6.902,-20.997 -6.973,-21.144 -7.066,-21.243 C -7.16,-21.343 -7.301,-21.434 -7.488,-21.516 C -7.676,-21.598 -7.89,-21.665 -8.13,-21.718 C -8.37,-21.771 -8.625,-21.814 -8.895,-21.85 C -9.164,-21.885 -9.434,-21.902 -9.703,-21.902 C -10.523,-21.902 -11.227,-21.794 -11.813,-21.577 C -12.398,-21.36 -12.879,-21.032 -13.254,-20.593 C -13.629,-20.153 -13.901,-19.597 -14.071,-18.923 C -14.241,-18.249 -14.326,-17.455 -14.326,-16.541 L -14.326,-7.295 L -16.541,-7.295 C -16.717,-7.295 -16.857,-7.201 -16.963,-7.014 C -17.068,-6.826 -17.121,-6.521 -17.121,-6.1 C -17.121,-5.877 -17.106,-5.689 -17.077,-5.537 C -17.048,-5.385 -17.01,-5.259 -16.963,-5.159 C -16.916,-5.06 -16.854,-4.989 -16.778,-4.948 C -16.702,-4.907 -16.617,-4.887 -16.523,-4.887 L -14.326,-4.887 L -14.326,-1.125 C -14.326,-1.043 -14.306,-0.967 -14.265,-0.896 C -14.224,-0.826 -14.147,-0.765 -14.036,-0.712 C -13.925,-0.659 -13.775,-0.621 -13.588,-0.598 C -13.4,-0.574 -13.166,-0.563 -12.885,-0.563 C -12.592,-0.563 -12.352,-0.574 -12.164,-0.598 C -11.977,-0.621 -11.83,-0.659 -11.725,-0.712 C -11.619,-0.765 -11.543,-0.826 -11.496,-0.896 C -11.449,-0.967 -11.426,-1.043 -11.426,-1.125 L -11.426,-4.887 L -1.248,-4.887 Z"
                 style="fill:#231f20;fill-opacity:1;fill-rule:nonzero;stroke:none"
                 id="path302" /></g><g
               id="g304"
               transform="translate(165.811,136.542)"><path
                 d="M 0,0 C 0,0.855 -0.08,1.664 -0.239,2.426 C -0.399,3.188 -0.663,3.855 -1.029,4.43 C -1.396,5.004 -1.892,5.458 -2.519,5.792 C -3.146,6.126 -3.926,6.293 -4.86,6.293 C -5.723,6.293 -6.465,6.141 -7.086,5.836 C -7.707,5.531 -8.218,5.101 -8.621,4.544 C -9.022,3.987 -9.321,3.328 -9.516,2.566 C -9.711,1.805 -9.809,0.973 -9.809,0.07 C -9.809,-0.797 -9.729,-1.611 -9.569,-2.373 C -9.41,-3.135 -9.144,-3.8 -8.771,-4.368 C -8.398,-4.937 -7.899,-5.388 -7.272,-5.722 C -6.646,-6.056 -5.865,-6.223 -4.931,-6.223 C -4.08,-6.223 -3.341,-6.07 -2.714,-5.766 C -2.087,-5.461 -1.573,-5.033 -1.171,-4.482 C -0.769,-3.932 -0.473,-3.275 -0.284,-2.514 C -0.095,-1.752 0,-0.914 0,0 M 3.006,0.193 C 3.006,-1.096 2.836,-2.282 2.496,-3.366 C 2.156,-4.45 1.649,-5.385 0.976,-6.17 C 0.302,-6.955 -0.542,-7.567 -1.556,-8.007 C -2.569,-8.446 -3.744,-8.666 -5.08,-8.666 C -6.381,-8.666 -7.515,-8.473 -8.481,-8.086 C -9.448,-7.699 -10.254,-7.137 -10.898,-6.398 C -11.543,-5.66 -12.023,-4.764 -12.34,-3.709 C -12.656,-2.654 -12.814,-1.459 -12.814,-0.123 C -12.814,1.166 -12.647,2.353 -12.313,3.437 C -11.979,4.521 -11.476,5.455 -10.802,6.24 C -10.128,7.025 -9.287,7.635 -8.279,8.068 C -7.271,8.502 -6.094,8.719 -4.746,8.719 C -3.445,8.719 -2.312,8.525 -1.345,8.139 C -0.378,7.752 0.428,7.189 1.072,6.451 C 1.717,5.713 2.2,4.816 2.522,3.762 C 2.845,2.707 3.006,1.518 3.006,0.193"
                 style="fill:#231f20;fill-opacity:1;fill-rule:nonzero;stroke:none"
                 id="path306" /></g><g
               id="g308"
               transform="translate(186.7114,128.6494)"><path
                 d="M 0,0 C 0,-0.094 -0.023,-0.173 -0.07,-0.237 C -0.117,-0.302 -0.193,-0.357 -0.299,-0.404 C -0.404,-0.451 -0.551,-0.486 -0.738,-0.51 C -0.926,-0.533 -1.16,-0.545 -1.441,-0.545 C -1.734,-0.545 -1.975,-0.533 -2.162,-0.51 C -2.35,-0.486 -2.496,-0.451 -2.602,-0.404 C -2.707,-0.357 -2.783,-0.302 -2.83,-0.237 C -2.877,-0.173 -2.9,-0.094 -2.9,0 L -2.9,9.264 C -2.9,10.166 -2.971,10.893 -3.111,11.443 C -3.252,11.994 -3.457,12.469 -3.727,12.867 C -3.996,13.266 -4.345,13.57 -4.772,13.781 C -5.2,13.992 -5.695,14.098 -6.258,14.098 C -6.984,14.098 -7.711,13.84 -8.438,13.324 C -9.164,12.809 -9.926,12.053 -10.723,11.057 L -10.723,0 C -10.723,-0.094 -10.746,-0.173 -10.793,-0.237 C -10.84,-0.302 -10.916,-0.357 -11.021,-0.404 C -11.127,-0.451 -11.273,-0.486 -11.461,-0.51 C -11.648,-0.533 -11.889,-0.545 -12.182,-0.545 C -12.463,-0.545 -12.697,-0.533 -12.885,-0.51 C -13.072,-0.486 -13.222,-0.451 -13.333,-0.404 C -13.444,-0.357 -13.521,-0.302 -13.562,-0.237 C -13.603,-0.173 -13.623,-0.094 -13.623,0 L -13.623,15.82 C -13.623,15.914 -13.605,15.993 -13.57,16.058 C -13.535,16.122 -13.465,16.181 -13.359,16.233 C -13.254,16.286 -13.119,16.321 -12.955,16.339 C -12.791,16.356 -12.574,16.365 -12.305,16.365 C -12.047,16.365 -11.833,16.356 -11.663,16.339 C -11.493,16.321 -11.361,16.286 -11.268,16.233 C -11.174,16.181 -11.106,16.122 -11.065,16.058 C -11.024,15.993 -11.004,15.914 -11.004,15.82 L -11.004,13.729 C -10.113,14.725 -9.226,15.454 -8.341,15.917 C -7.456,16.38 -6.563,16.611 -5.66,16.611 C -4.605,16.611 -3.718,16.433 -2.997,16.075 C -2.276,15.718 -1.693,15.24 -1.248,14.643 C -0.803,14.045 -0.483,13.345 -0.29,12.542 C -0.097,11.739 0,10.775 0,9.65 L 0,0 Z"
                 style="fill:#231f20;fill-opacity:1;fill-rule:nonzero;stroke:none"
                 id="path310" /></g><g
               id="g312"
               transform="translate(104.0088,329.6709)"><path
                 d="M 0,0 L 53.625,-26.766 L 49.591,-34.945 L -4.095,-8.191 L 0,0 Z"
                 style="fill:#ffffff;fill-opacity:1;fill-rule:evenodd;stroke:none"
                 id="path314" /></g><g
               id="g316"
               transform="translate(101.1187,320.9019)"><path
                 d="M 0,0 L -0.566,1.796 L 53.059,-24.971 L 51.276,-25.598 L 55.372,-17.407 L 55.938,-19.203 L 2.313,7.564 L 4.109,8.13 L 0,0 Z M 1.686,9.347 C 1.999,9.986 2.829,10.287 3.481,9.913 L 57.168,-16.84 C 57.807,-17.153 58.034,-17.936 57.722,-18.575 L 53.687,-26.753 C 53.313,-27.406 52.543,-27.694 51.891,-27.32 L -1.783,-0.627 C -2.436,-0.253 -2.724,0.516 -2.349,1.168 L 1.686,9.347 Z"
                 style="fill:#ffffff;fill-opacity:1;fill-rule:nonzero;stroke:none"
                 id="path318" /></g><g
               id="g320"
               transform="translate(101.1187,320.9019)"><path
                 d="M 0,0 L -0.566,1.796 L 53.059,-24.971 L 51.276,-25.598 L 55.372,-17.407 L 55.938,-19.203 L 2.313,7.564 L 4.109,8.13 L 0,0 Z M 1.686,9.347 C 1.999,9.986 2.829,10.287 3.481,9.913 L 57.168,-16.84 C 57.807,-17.153 58.034,-17.936 57.722,-18.575 L 53.687,-26.753 C 53.313,-27.406 52.543,-27.694 51.891,-27.32 L -1.783,-0.627 C -2.436,-0.253 -2.724,0.516 -2.349,1.168 L 1.686,9.347 Z"
                 style="fill:none;stroke:#ffffff;stroke-width:0.062;stroke-linecap:butt;stroke-linejoin:round;stroke-miterlimit:10;stroke-dasharray:none;stroke-opacity:1"
                 id="path322" /></g><g
               id="g324"
               transform="translate(56.3594,227.8584)"><path
                 d="M 0,0 L 53.625,-26.767 L 49.59,-34.945 L -4.096,-8.191 L 0,0 Z"
                 style="fill:#ffffff;fill-opacity:1;fill-rule:evenodd;stroke:none"
                 id="path326" /></g><g
               id="g328"
               transform="translate(53.4683,219.0894)"><path
                 d="M 0,0 L -0.566,1.795 L 53.059,-24.971 L 51.276,-25.597 L 55.372,-17.406 L 55.938,-19.203 L 2.313,7.564 L 4.109,8.13 L 0,0 Z M 1.686,9.347 C 1.999,9.986 2.829,10.287 3.481,9.914 L 57.167,-16.84 C 57.807,-17.153 58.034,-17.935 57.721,-18.575 L 53.687,-26.753 C 53.313,-27.406 52.543,-27.695 51.891,-27.32 L -1.783,-0.627 C -2.435,-0.253 -2.723,0.516 -2.349,1.168 L 1.686,9.347 Z"
                 style="fill:#ffffff;fill-opacity:1;fill-rule:nonzero;stroke:none"
                 id="path330" /></g><g
               id="g332"
               transform="translate(53.4683,219.0894)"><path
                 d="M 0,0 L -0.566,1.795 L 53.059,-24.971 L 51.276,-25.597 L 55.372,-17.406 L 55.938,-19.203 L 2.313,7.564 L 4.109,8.13 L 0,0 Z M 1.686,9.347 C 1.999,9.986 2.829,10.287 3.481,9.914 L 57.167,-16.84 C 57.807,-17.153 58.034,-17.935 57.721,-18.575 L 53.687,-26.753 C 53.313,-27.406 52.543,-27.695 51.891,-27.32 L -1.783,-0.627 C -2.435,-0.253 -2.723,0.516 -2.349,1.168 L 1.686,9.347 Z"
                 style="fill:none;stroke:#ffffff;stroke-width:0.062;stroke-linecap:butt;stroke-linejoin:round;stroke-miterlimit:10;stroke-dasharray:none;stroke-opacity:1"
                 id="path334" /></g><g
               id="g336"
               transform="translate(64.7954,222.2827)"><path
                 d="M 0,0 L 30.004,60.426 L 13.217,68.724 L 63.463,85.655 L 80.333,35.395 L 63.594,43.768 L 33.589,-16.658 L 0,0 Z"
                 style="fill:#dbdad8;fill-opacity:1;fill-rule:evenodd;stroke:none"
                 id="path338" /></g><g
               id="g340"
               transform="translate(98.9619,206.8301)"><path
                 d="M 0,0 L -1.783,-0.628 L 28.799,61.003 L 46.805,52.066 L 44.908,50.458 L 28.051,100.656 L 29.687,99.85 L -20.499,82.931 L -20.373,85.382 L -2.366,76.444 L -32.961,14.875 L -33.588,16.658 L 0,0 Z M -35.949,14.825 L -5.368,76.457 L -4.74,74.673 L -24.381,84.418 L 30.165,102.756 L 48.49,48.271 L 28.788,58.002 L 30.583,58.569 L -0.011,-3.001 L -35.949,14.825 Z"
                 style="fill:#110f0d;fill-opacity:1;fill-rule:nonzero;stroke:none"
                 id="path342" /></g><g
               id="g344"
               transform="translate(98.9619,206.8301)"><path
                 d="M 0,0 L -1.783,-0.628 L 28.799,61.003 L 46.805,52.066 L 44.908,50.458 L 28.051,100.656 L 29.687,99.85 L -20.499,82.931 L -20.373,85.382 L -2.366,76.444 L -32.961,14.875 L -33.588,16.658 L 0,0 Z M -35.949,14.825 L -5.368,76.457 L -4.74,74.673 L -24.381,84.418 L 30.165,102.756 L 48.49,48.271 L 28.788,58.002 L 30.583,58.569 L -0.011,-3.001 L -35.949,14.825 Z"
                 style="fill:none;stroke:#110f0d;stroke-width:0.062;stroke-linecap:butt;stroke-linejoin:round;stroke-miterlimit:10;stroke-dasharray:none;stroke-opacity:1"
                 id="path346" /></g><g
               id="g348"
               transform="translate(163.9043,23.0234)"><path
                 d="M 0,0 L 9.485,59.18 L 18.498,57.779 L 9.042,-1.455 L 0,0 Z"
                 style="fill:#ffffff;fill-opacity:1;fill-rule:evenodd;stroke:none"
                 id="path350" /></g><g
               id="g352"
               transform="translate(173.1367,22.8906)"><path
                 d="M 0,0 L -1.544,-1.078 L 7.942,58.102 L 9.074,56.588 L 0.032,58.045 L 1.577,59.121 L -7.91,-0.057 L -8.988,1.488 L 0,0 Z M -9.423,-1.189 C -10.127,-1.082 -10.662,-0.379 -10.501,0.355 L -1.046,59.588 C -0.938,60.291 -0.26,60.742 0.443,60.635 L 9.455,59.234 C 10.19,59.072 10.694,58.424 10.533,57.689 L 1.132,-1.512 C 0.971,-2.248 0.323,-2.752 -0.412,-2.59 L -9.423,-1.189 Z"
                 style="fill:#ffffff;fill-opacity:1;fill-rule:nonzero;stroke:none"
                 id="path354" /></g><g
               id="g356"
               transform="translate(173.1367,22.8906)"><path
                 d="M 0,0 L -1.544,-1.078 L 7.942,58.102 L 9.074,56.588 L 0.032,58.045 L 1.577,59.121 L -7.91,-0.057 L -8.988,1.488 L 0,0 Z M -9.423,-1.189 C -10.127,-1.082 -10.662,-0.379 -10.501,0.355 L -1.046,59.588 C -0.938,60.291 -0.26,60.742 0.443,60.635 L 9.455,59.234 C 10.19,59.072 10.694,58.424 10.533,57.689 L 1.132,-1.512 C 0.971,-2.248 0.323,-2.752 -0.412,-2.59 L -9.423,-1.189 Z"
                 style="fill:none;stroke:#ffffff;stroke-width:0.062;stroke-linecap:butt;stroke-linejoin:round;stroke-miterlimit:10;stroke-dasharray:none;stroke-opacity:1"
                 id="path358" /></g><g
               id="g360"
               transform="translate(275.3125,8.0371)"><path
                 d="M 0,0 L 9.486,59.18 L 18.498,57.777 L 9.041,-1.455 L 0,0 Z"
                 style="fill:#ffffff;fill-opacity:1;fill-rule:evenodd;stroke:none"
                 id="path362" /></g><g
               id="g364"
               transform="translate(284.5449,7.9043)"><path
                 d="M 0,0 L -1.545,-1.076 L 7.941,58.102 L 9.074,56.588 L 0.031,58.043 L 1.576,59.121 L -7.91,-0.057 L -8.988,1.486 L 0,0 Z M -9.424,-1.189 C -10.127,-1.082 -10.662,-0.379 -10.502,0.354 L -1.047,59.588 C -0.939,60.291 -0.262,60.742 0.443,60.635 L 9.455,59.234 C 10.189,59.072 10.693,58.424 10.533,57.689 L 1.133,-1.514 C 0.969,-2.248 0.322,-2.752 -0.412,-2.592 L -9.424,-1.189 Z"
                 style="fill:#ffffff;fill-opacity:1;fill-rule:nonzero;stroke:none"
                 id="path366" /></g><g
               id="g368"
               transform="translate(284.5449,7.9043)"><path
                 d="M 0,0 L -1.545,-1.076 L 7.941,58.102 L 9.074,56.588 L 0.031,58.043 L 1.576,59.121 L -7.91,-0.057 L -8.988,1.486 L 0,0 Z M -9.424,-1.189 C -10.127,-1.082 -10.662,-0.379 -10.502,0.354 L -1.047,59.588 C -0.939,60.291 -0.262,60.742 0.443,60.635 L 9.455,59.234 C 10.189,59.072 10.693,58.424 10.533,57.689 L 1.133,-1.514 C 0.969,-2.248 0.322,-2.752 -0.412,-2.592 L -9.424,-1.189 Z"
                 style="fill:none;stroke:#ffffff;stroke-width:0.062;stroke-linecap:butt;stroke-linejoin:round;stroke-miterlimit:10;stroke-dasharray:none;stroke-opacity:1"
                 id="path370" /></g><g
               id="g372"
               transform="translate(278.1074,17.7559)"><path
                 d="M 0,0 L -66.637,10.539 L -69.53,-7.961 L -100.726,34.912 L -57.821,66.053 L -60.798,47.576 L 5.838,37.035 L 0,0 Z"
                 style="fill:#dbdad8;fill-opacity:1;fill-rule:evenodd;stroke:none"
                 id="path374" /></g><g
               id="g376"
               transform="translate(282.623,54.9824)"><path
                 d="M 0,0 L 1.133,-1.514 L -66.828,9.217 L -63.69,29.072 L -61.588,27.744 L -104.438,-3.367 L -104.158,-1.566 L -72.992,-44.385 L -75.368,-44.998 L -72.23,-25.143 L -4.326,-35.902 L -5.838,-37.035 L 0,0 Z M -3.385,-38.738 L -71.344,-28.01 L -69.83,-26.877 L -73.248,-48.535 L -107.074,-1.98 L -60.573,31.816 L -63.96,10.104 L -65.039,11.646 L 2.867,0.887 L -3.385,-38.738 Z"
                 style="fill:#110f0d;fill-opacity:1;fill-rule:nonzero;stroke:none"
                 id="path378" /></g><g
               id="g380"
               transform="translate(282.623,54.9824)"><path
                 d="M 0,0 L 1.133,-1.514 L -66.828,9.217 L -63.69,29.072 L -61.588,27.744 L -104.438,-3.367 L -104.158,-1.566 L -72.992,-44.385 L -75.368,-44.998 L -72.23,-25.143 L -4.326,-35.902 L -5.838,-37.035 L 0,0 Z M -3.385,-38.738 L -71.344,-28.01 L -69.83,-26.877 L -73.248,-48.535 L -107.074,-1.98 L -60.573,31.816 L -63.96,10.104 L -65.039,11.646 L 2.867,0.887 L -3.385,-38.738 Z"
                 style="fill:none;stroke:#110f0d;stroke-width:0.062;stroke-linecap:butt;stroke-linejoin:round;stroke-miterlimit:10;stroke-dasharray:none;stroke-opacity:1"
                 id="path382" /></g><g
               id="g384"
               transform="translate(452.3984,222.0078)"><path
                 d="M 0,0 L -52.135,-29.564 L -56.67,-21.653 L -4.514,7.97 L 0,0 Z"
                 style="fill:#ffffff;fill-opacity:1;fill-rule:evenodd;stroke:none"
                 id="path386" /></g><g
               id="g388"
               transform="translate(446.7344,229.2998)"><path
                 d="M 0,0 L 1.807,-0.532 L -50.328,-30.097 L -49.855,-28.269 L -45.342,-36.237 L -47.148,-35.704 L 4.986,-6.14 L 4.453,-7.947 L 0,0 Z M 6.814,-6.614 C 7.172,-7.23 6.957,-8.087 6.283,-8.42 L -45.873,-38.044 C -46.49,-38.399 -47.268,-38.151 -47.623,-37.536 L -52.158,-29.623 C -52.492,-28.949 -52.301,-28.149 -51.627,-27.817 L 0.475,1.83 C 1.148,2.163 1.947,1.973 2.279,1.297 L 6.814,-6.614 Z"
                 style="fill:#ffffff;fill-opacity:1;fill-rule:nonzero;stroke:none"
                 id="path390" /></g><g
               id="g392"
               transform="translate(446.7344,229.2998)"><path
                 d="M 0,0 L 1.807,-0.532 L -50.328,-30.097 L -49.855,-28.269 L -45.342,-36.237 L -47.148,-35.704 L 4.986,-6.14 L 4.453,-7.947 L 0,0 Z M 6.814,-6.614 C 7.172,-7.23 6.957,-8.087 6.283,-8.42 L -45.873,-38.044 C -46.49,-38.399 -47.268,-38.151 -47.623,-37.536 L -52.158,-29.623 C -52.492,-28.949 -52.301,-28.149 -51.627,-27.817 L 0.475,1.83 C 1.148,2.163 1.947,1.973 2.279,1.297 L 6.814,-6.614 Z"
                 style="fill:none;stroke:#ffffff;stroke-width:0.062;stroke-linecap:butt;stroke-linejoin:round;stroke-miterlimit:10;stroke-dasharray:none;stroke-opacity:1"
                 id="path394" /></g><g
               id="g396"
               transform="translate(394.498,318.3613)"><path
                 d="M 0,0 L -52.135,-29.566 L -56.67,-21.654 L -4.512,7.969 L 0,0 Z"
                 style="fill:#ffffff;fill-opacity:1;fill-rule:evenodd;stroke:none"
                 id="path398" /></g><g
               id="g400"
               transform="translate(388.834,325.6533)"><path
                 d="M 0,0 L 1.807,-0.533 L -50.33,-30.097 L -49.854,-28.268 L -45.344,-36.238 L -47.148,-35.706 L 4.986,-6.14 L 4.453,-7.948 L 0,0 Z M 6.816,-6.615 C 7.172,-7.231 6.957,-8.088 6.283,-8.42 L -45.875,-38.044 C -46.49,-38.399 -47.268,-38.152 -47.621,-37.535 L -52.158,-29.624 C -52.492,-28.949 -52.301,-28.15 -51.625,-27.817 L 0.473,1.83 C 1.148,2.162 1.947,1.971 2.281,1.297 L 6.816,-6.615 Z"
                 style="fill:#ffffff;fill-opacity:1;fill-rule:nonzero;stroke:none"
                 id="path402" /></g><g
               id="g404"
               transform="translate(388.834,325.6533)"><path
                 d="M 0,0 L 1.807,-0.533 L -50.33,-30.097 L -49.854,-28.268 L -45.344,-36.238 L -47.148,-35.706 L 4.986,-6.14 L 4.453,-7.948 L 0,0 Z M 6.816,-6.615 C 7.172,-7.231 6.957,-8.088 6.283,-8.42 L -45.875,-38.044 C -46.49,-38.399 -47.268,-38.152 -47.621,-37.535 L -52.158,-29.624 C -52.492,-28.949 -52.301,-28.15 -51.625,-27.817 L 0.473,1.83 C 1.148,2.162 1.947,1.971 2.281,1.297 L 6.816,-6.615 Z"
                 style="fill:none;stroke:#ffffff;stroke-width:0.062;stroke-linecap:butt;stroke-linejoin:round;stroke-miterlimit:10;stroke-dasharray:none;stroke-opacity:1"
                 id="path406" /></g><g
               id="g408"
               transform="translate(385.1621,314.4712)"><path
                 d="M 0,0 L 33.402,-58.617 L 49.656,-49.316 L 35.67,-100.46 L -15.451,-86.414 L 0.836,-77.195 L -32.564,-18.579 L 0,0 Z"
                 style="fill:#dbdad8;fill-opacity:1;fill-rule:evenodd;stroke:none"
                 id="path410" /></g><g
               id="g412"
               transform="translate(353.2754,294.7402)"><path
                 d="M 0,0 L 0.473,1.83 L 34.553,-57.938 L 17.09,-67.893 L 16.813,-65.422 L 67.877,-79.443 L 66.295,-80.351 L 80.26,-29.263 L 82.221,-30.736 L 64.758,-40.691 L 30.736,19.053 L 32.564,18.579 L 0,0 Z M 32.361,21.56 L 66.443,-38.208 L 64.613,-37.733 L 83.658,-26.871 L 68.439,-82.369 L 13,-67.174 L 32.07,-56.254 L 31.537,-58.06 L -2.484,1.684 L 32.361,21.56 Z"
                 style="fill:#110f0d;fill-opacity:1;fill-rule:nonzero;stroke:none"
                 id="path414" /></g><g
               id="g416"
               transform="translate(353.2754,294.7402)"><path
                 d="M 0,0 L 0.473,1.83 L 34.553,-57.938 L 17.09,-67.893 L 16.813,-65.422 L 67.877,-79.443 L 66.295,-80.351 L 80.26,-29.263 L 82.221,-30.736 L 64.758,-40.691 L 30.736,19.053 L 32.564,18.579 L 0,0 Z M 32.361,21.56 L 66.443,-38.208 L 64.613,-37.733 L 83.658,-26.871 L 68.439,-82.369 L 13,-67.174 L 32.07,-56.254 L 31.537,-58.06 L -2.484,1.684 L 32.361,21.56 Z"
                 style="fill:none;stroke:#110f0d;stroke-width:0.062;stroke-linecap:butt;stroke-linejoin:round;stroke-miterlimit:10;stroke-dasharray:none;stroke-opacity:1"
                 id="path418" /></g><g
               id="g420"
               transform="translate(97.1953,263.3633)"><path
                 d="M 0,0 C -1.314,-1.765 -2.269,-4.105 -2.269,-7.364 C -2.269,-10.569 -1.278,-12.874 0,-14.674 L -1.242,-14.674 C -2.376,-13.18 -3.601,-10.875 -3.601,-7.364 C -3.583,-3.817 -2.376,-1.512 -1.242,0 L 0,0 Z"
                 style="fill:#231f20;fill-opacity:1;fill-rule:nonzero;stroke:none"
                 id="path422" /></g><g
               id="g424"
               transform="translate(100.4888,252.0562)"><path
                 d="M 0,0 C 0.306,-0.054 0.756,-0.072 1.314,-0.072 C 2.935,-0.072 4.429,0.522 4.429,2.287 C 4.429,3.943 3.007,4.627 1.296,4.627 L 0,4.627 L 0,0 Z M 0,5.815 L 1.422,5.815 C 3.079,5.815 4.051,6.68 4.051,7.85 C 4.051,9.272 2.971,9.831 1.386,9.831 C 0.666,9.831 0.252,9.777 0,9.723 L 0,5.815 Z M -1.566,10.785 C -0.882,10.929 0.198,11.037 1.296,11.037 C 2.863,11.037 3.871,10.767 4.627,10.155 C 5.257,9.687 5.636,8.966 5.636,8.012 C 5.636,6.842 4.861,5.815 3.583,5.348 L 3.583,5.312 C 4.735,5.023 6.085,4.069 6.085,2.269 C 6.085,1.224 5.671,0.432 5.06,-0.162 C 4.213,-0.937 2.845,-1.296 0.864,-1.296 C -0.216,-1.296 -1.044,-1.225 -1.566,-1.152 L -1.566,10.785 Z"
                 style="fill:#231f20;fill-opacity:1;fill-rule:nonzero;stroke:none"
                 id="path426" /></g><g
               id="g428"
               transform="translate(107.6694,248.689)"><path
                 d="M 0,0 C 1.279,1.783 2.269,4.124 2.269,7.364 C 2.269,10.587 1.297,12.892 0,14.674 L 1.225,14.674 C 2.377,13.198 3.583,10.893 3.583,7.346 C 3.583,3.817 2.377,1.531 1.225,0 L 0,0 Z"
                 style="fill:#231f20;fill-opacity:1;fill-rule:nonzero;stroke:none"
                 id="path430" /></g><g
               id="g432"
               transform="translate(235.1958,49.1279)"><path
                 d="M 0,0 C -1.314,-1.765 -2.269,-4.104 -2.269,-7.364 C -2.269,-10.569 -1.278,-12.874 0,-14.675 L -1.242,-14.675 C -2.376,-13.18 -3.601,-10.875 -3.601,-7.364 C -3.583,-3.817 -2.376,-1.513 -1.242,0 L 0,0 Z"
                 style="fill:#231f20;fill-opacity:1;fill-rule:nonzero;stroke:none"
                 id="path434" /></g><g
               id="g436"
               transform="translate(242.6665,41.6738)"><path
                 d="M 0,0 L -1.188,3.493 C -1.458,4.285 -1.638,5.006 -1.818,5.707 L -1.854,5.707 C -2.035,4.987 -2.232,4.249 -2.467,3.512 L -3.655,0 L 0,0 Z M -3.979,-1.225 L -5.239,-5.041 L -6.86,-5.041 L -2.737,7.094 L -0.846,7.094 L 3.295,-5.041 L 1.621,-5.041 L 0.324,-1.225 L -3.979,-1.225 Z"
                 style="fill:#231f20;fill-opacity:1;fill-rule:nonzero;stroke:none"
                 id="path438" /></g><g
               id="g440"
               transform="translate(246.5713,34.4531)"><path
                 d="M 0,0 C 1.278,1.783 2.269,4.124 2.269,7.365 C 2.269,10.588 1.296,12.893 0,14.675 L 1.224,14.675 C 2.376,13.198 3.583,10.894 3.583,7.347 C 3.583,3.818 2.376,1.531 1.224,0 L 0,0 Z"
                 style="fill:#231f20;fill-opacity:1;fill-rule:nonzero;stroke:none"
                 id="path442" /></g></g></g></g></g></g></svg>